<svg xmlns="http://www.w3.org/2000/svg" xmlns:xlink="http://www.w3.org/1999/xlink" width="1920" height="682" viewBox="0 0 1920 682">
  <defs>
    <clipPath id="clip-path">
      <rect id="Rectangle_1396" data-name="Rectangle 1396" width="1920" height="682" fill="#fff" stroke="#707070" stroke-width="1"/>
    </clipPath>
    <clipPath id="clip-path-2">
      <rect id="Rectangle_359" data-name="Rectangle 359" width="2114.007" height="966.216" fill="#f37137"/>
    </clipPath>
  </defs>
  <g id="Mask_Group_47" data-name="Mask Group 47" clip-path="url(#clip-path)">
    <g id="Group_316" data-name="Group 316" transform="translate(670.76 -897.293) rotate(42)" opacity="0.064">
      <g id="Group_315" data-name="Group 315" clip-path="url(#clip-path-2)">
        <path id="Path_72" data-name="Path 72" d="M39.026,966.127q99.329-8.505,198.086-22.2c63.271-8.806,126.28-19.581,188.771-32.856,62.121-13.2,123.73-28.867,184.45-47.494,58.849-18.054,116.658-39.115,173.517-62.685,52.819-21.9,105.065-45.278,155.183-72.879s97.844-59.525,141.546-96.525c43.465-36.8,82.823-79.905,113.135-128.242a390.161,390.161,0,0,0,40.387-85.8c9.487-29.078,14.875-60.62,13.528-91.245-1.431-32.557-9.267-65.347-26.721-93.183-8.295-13.23-18.445-26.086-30.438-36.186-14.514-12.222-29.174-20.574-46.725-27.62-28.435-11.416-61.238-11.459-90.768-4.667-30.042,6.908-57.75,22.744-80.605,43.177-43.84,39.195-66.715,99.448-63.168,157.817,3.616,59.52,30.539,114.274,71.31,157.265,38.205,40.285,87.877,68.124,140,86.087,55.645,19.178,116.092,25.763,174.715,24.244,66.483-1.724,133.035-13.772,196.778-32.444a1046.863,1046.863,0,0,0,148.476-56.5,972.839,972.839,0,0,0,131.766-74.486,989.4,989.4,0,0,0,124.31-98.781c38.579-36.209,73.409-75.908,105.158-118.207a789.215,789.215,0,0,0,78.323-127.768c12.028-24.676,22.821-50.013,32.445-75.719,3.362-8.979.742-22.067-3.931-30.051-4.734-8.09-14.01-15.806-23.308-17.923-9.983-2.274-21.19-1.783-30.052,3.931-8.965,5.78-14.185,13.325-17.922,23.308q-5.5,14.694-11.59,29.158l3.932-9.318A778.741,778.741,0,0,1,1953.759,186.4q-12.766,18.54-26.545,36.351l6.1-7.893A873.319,873.319,0,0,1,1812.793,341.51q-18.808,16.2-38.47,31.369l7.893-6.1a966.94,966.94,0,0,1-165.021,102.382q-24.67,12.074-49.987,22.754l9.316-3.931c-53.1,22.356-108.154,40.371-164.48,52.582q-29.091,6.308-58.6,10.358,5.184-.7,10.368-1.392c-51.419,6.871-103.469,7.911-154.95,1.082q5.184.694,10.368,1.392a400.818,400.818,0,0,1-100.686-26.994l9.316,3.931a318.3,318.3,0,0,1-70.587-40.751l7.893,6.1a259.543,259.543,0,0,1-45.093-44.78q3.05,3.947,6.1,7.892a234.082,234.082,0,0,1-30.023-50.876l3.932,9.317a190.919,190.919,0,0,1-12.975-47.41q.7,5.184,1.393,10.368a182.633,182.633,0,0,1-.123-47.008q-.7,5.184-1.393,10.368A167.177,167.177,0,0,1,998.433,300q-1.966,4.659-3.932,9.316a156.031,156.031,0,0,1,19.286-32.993l-6.1,7.893a161.319,161.319,0,0,1,28.415-28.437l-7.893,6.1a152.11,152.11,0,0,1,31.862-18.58l-9.316,3.932a140.7,140.7,0,0,1,35.118-9.667l-10.367,1.393a124.885,124.885,0,0,1,31.758-.014l-10.368-1.394a115.062,115.062,0,0,1,28.175,7.734q-4.657-1.968-9.316-3.932a114.516,114.516,0,0,1,24.528,14.36l-7.893-6.1a121.653,121.653,0,0,1,20.231,20.558l-6.1-7.893a137.413,137.413,0,0,1,16.984,29.288q-1.965-4.658-3.931-9.316a155.427,155.427,0,0,1,9.995,38.012q-.7-5.182-1.394-10.367a201.719,201.719,0,0,1-.272,52.425q.7-5.184,1.393-10.367c-3.315,23.943-10.287,47.13-19.648,69.38q1.967-4.658,3.932-9.316c-13.2,30.925-30.806,59.682-51.328,86.269l6.1-7.893c-30.711,39.533-66.921,74.353-106.462,104.969l7.893-6.1c-57.491,44.306-121.3,79.67-187.014,110.174q-28,13-56.465,24.945l9.317-3.931a1960.691,1960.691,0,0,1-213,75.982c-75.409,21.97-152.07,39.516-229.332,53.581Q268.1,861.882,202.407,870.628l10.368-1.393c-57.749,7.753-115.7,13.921-173.749,18.892-10.515.9-19.9,3.745-27.577,11.422C4.685,906.314-.409,917.412.026,927.127c.452,10.086,3.765,20.547,11.423,27.577,7.248,6.654,17.379,12.3,27.577,11.423" fill="#f37137"/>
      </g>
    </g>
  </g>
</svg>
