<svg xmlns="http://www.w3.org/2000/svg" xmlns:xlink="http://www.w3.org/1999/xlink" width="1920" height="1396" viewBox="0 0 1920 1396">
  <defs>
    <clipPath id="clip-path">
      <rect id="Rectangle_1400" data-name="Rectangle 1400" width="1920" height="1396" transform="translate(0 7750)" fill="#fff" stroke="#707070" stroke-width="1"/>
    </clipPath>
    <clipPath id="clip-path-2">
      <rect id="Rectangle_503" data-name="Rectangle 503" width="1920" height="1409" transform="translate(0 7656)" fill="#41286e"/>
    </clipPath>
    <clipPath id="clip-path-3">
      <rect id="Rectangle_19" data-name="Rectangle 19" width="2648.573" height="1785.619" fill="#3cb4be"/>
    </clipPath>
  </defs>
  <g id="Mask_Group_47" data-name="Mask Group 47" transform="translate(0 -7750)" clip-path="url(#clip-path)">
    <g id="Mask_Group_39" data-name="Mask Group 39" transform="translate(0 94.429)" clip-path="url(#clip-path-2)">
      <g id="Group_96" data-name="Group 96" transform="translate(-349.287 7390)" opacity="0.2">
        <g id="Group_15" data-name="Group 15" transform="translate(0)" clip-path="url(#clip-path-3)">
          <path id="Path_10" data-name="Path 10" d="M2549.537,1736.129c.527-49.581-.323-99.222-4.6-148.645-1.035-11.97-2.307-23.911-3.722-35.838a67.683,67.683,0,0,0-.959-7.213c-1.005-6.758-2.047-13.51-3.194-20.245a709.965,709.965,0,0,0-16.025-72.011q-4.772-17.025-10.529-33.757-2.878-8.332-6.013-16.575c-1.193-3.135-2.436-6.251-3.676-9.369-.857-2.156-2.98-6.943-.864-2.1a468.565,468.565,0,0,0-34.3-64.482c-14.353-22.47-22.453-32.854-41.191-52.9a513.924,513.924,0,0,0-51.642-48.523c-7.727-6.27-3.659-2.822-1.912-1.513q-3.021-2.26-6.076-4.467-7.116-5.153-14.423-10.042-15.656-10.459-32.109-19.631-15.344-8.57-31.272-16.012c-1.81-.844-15.118-6.758-8.874-4.121-6.168-2.6-12.442-4.991-18.728-7.3a514.711,514.711,0,0,0-70.066-20.2c-11.5-2.453-23.08-4.556-34.724-6.2-5.858-.828-.415-.013.653.112-3.339-.389-6.679-.768-10.025-1.1q-10.033-1.009-20.1-1.632a522.953,522.953,0,0,0-70.531.386q-8.792.643-17.561,1.6c-1.131.122-11.462,1.355-5.927.636,4.942-.64-3.247.495-3.4.517-13.078,2.07-26.149,4.3-39.1,7.045a563.517,563.517,0,0,0-75.044,21.6c-23.762,8.6-39.207,15.464-64.169,28-92.612,46.529-175.473,109.5-260.641,167.95-90.275,61.953-187.585,113.229-290.937,149.739-188.132,66.453-425.99,86.563-596.092-36.78C554.888,1366.557,480.424,1185.005,516.1,1006.246c20.538-102.9,77.952-198.539,164-259.316,72.721-51.361,181.381-69.094,253.794-7.955,46.608,39.352,58.653,110.051,37.3,165.7-19.1,49.779-56.132,89.041-101.53,116.364-99.073,59.623-227.757,57.506-318.787-15.814-54.144-43.614-86.869-110.361-103.208-176.768-27.24-110.72-22.371-229.494-42.121-338.662a706.779,706.779,0,0,0-19.52-80.593q-4.723-15.473-10.16-30.718-2.64-7.378-5.462-14.68-1.192-3.086-2.417-6.161c.076.188-4.987-11.963-2.492-6.155,2.215,5.166-.633-1.371-.92-1.988-1.2-2.568-2.318-5.169-3.507-7.74q-3.081-6.651-6.346-13.213-6.824-13.7-14.482-26.96A457.94,457.94,0,0,0,309.9,255.974c7.312,9.722-2.621-3.03-4.173-4.882q-3.65-4.351-7.421-8.6-9.372-10.557-19.467-20.436-9.391-9.2-19.357-17.775c-3.333-2.865-6.765-5.6-10.118-8.439-1.734-1.47-7.374-5.733,1.1.729q-3.016-2.3-6.059-4.556c-30.7-22.668-64.255-41.247-99.057-56.811-1.995-.89-14.295-6.142-9.455-4.137,4.77,1.975-8.241-3.277-9.851-3.907q-13.178-5.177-26.527-9.89c-20.868-7.394-42-13.988-63.276-20.113C10.58,89.772-5.432,62.294,1.7,36.334,8.74,10.729,36.775-5.623,62.531,1.795c77.652,22.361,155.9,51.543,222.519,98.164C348.566,144.407,400.6,202.305,436.381,271.264c47.659,91.85,68.069,192.322,78.308,294.537,9.913,98.981,11.607,193.492,44.686,287.515-3.155-8.974-.88-1.991,1.338,2.806q2.161,4.673,4.48,9.273c3.708,7.352,7.724,14.555,12.075,21.55,3.583,5.756,7.849,11.083,11.422,16.82,3.372,5.416-6.461-7.457-2.185-2.806,1.005,1.094,1.849,2.354,2.831,3.475,2.585,2.944,5.09,5.95,7.754,8.825q6.3,6.8,13.164,13.051c2.4,2.186,4.882,4.279,7.354,6.389,1.042.89,2.176,1.685,3.2,2.594,4.243,3.738-10.431-7.18-2.414-1.978a325.751,325.751,0,0,0,31.826,18.741c9.5,4.744-2.235-1.2-2.367-.837-.04.119,7.345,2.835,8.37,3.2q8.371,3,16.981,5.255c5.7,1.5,11.443,2.647,17.225,3.758,2.113.409,11.334,1.7,2.1.445-9.653-1.315,2.271.142,4.619.333a232.213,232.213,0,0,0,34.832.211c2.888-.2,5.766-.5,8.65-.745,8.716-.745.264-1.559-3.316.541,4.183-2.456,13.4-2.278,18.21-3.339a256.78,256.78,0,0,0,32.871-9.62c2.658-.973,5.268-2.07,7.922-3.049,7.757-2.858-10.309,4.879-2.934,1.2,5.357-2.673,10.806-5.083,16.087-7.922a281.288,281.288,0,0,0,26.805-16.747c8.492-5.881-3.069,2.647-1.787,1.493,1.962-1.767,4.124-3.339,6.128-5.06q5.944-5.093,11.488-10.635c3.62-3.626,7-7.44,10.391-11.275,1.124-1.269,2.628-4.256,4.094-5.011-7.038,3.63-6.5,9.3-3.86,4.892.722-1.207,1.681-2.285,2.453-3.465,2.67-4.1,5.351-8.162,7.734-12.448,1-1.806,1.909-3.659,2.895-5.476,4.325-7.968.016-3.8-.745,2.512,1.019-8.459,5.647-18.53,7.717-27.022,1.7-6.992-.784,14.149-.679,4.207.023-2,.274-4.009.33-6.013.122-4.266-1.678-11.235-.609-15.184-.851,3.138,2.509,13.341.567,4.975-.554-2.387-.972-4.8-1.573-7.18-1.2-4.78-4.622-10.668-5.027-15.441.191,2.262,6.34,9.231,2.173,5.885-1.187-.953-2.509-3.933-3.32-5.265-4.754-7.8-.983-.946.386.471-1.355-1.4-2.555-2.964-4-4.282-3.1-2.835-11.222-8.6-3.1-3.376-4.256-2.736-8.538-5.176-12.933-7.671-7.75-4.4,6.567,1.414-2.126-.735-4.3-1.062-8.565-2.38-12.87-3.468-1.866-.468-3.785-.705-5.667-1.088,1.751.353,10.813.785,1.566.336-5.278-.254-10.5-.574-15.8-.471-4.019.079-8,.478-12.013.666-2.539.119-9.25,1.734,1.075-.277-2,.389-4.031.62-6.026,1.052a255.912,255.912,0,0,0-27.751,7.289c-3.4,1.144-14.235,5.486-5.36,1.625q-6.493,2.824-12.778,6.089a217.036,217.036,0,0,0-23.515,14.324c-9.89,6.831-11.851,8.149-22.575,17.861A316.223,316.223,0,0,0,685.2,874.1c-25.872,29.666-49.657,74.922-61.891,112.919a419.939,419.939,0,0,0-14.558,60.711c-.353,2.166-.672,4.338-.989,6.511.112-.768.706-8.1.369-2.3-.29,5.051-1.075,10.1-1.463,15.158q-1.163,15.062-1.19,30.184-.025,14.978,1.068,29.927c.36,4.955.854,9.893,1.365,14.831.214,2.113.485,4.22.742,6.33-.547-4.5-.887-5.8.026-.557a453.255,453.255,0,0,0,13.437,57.447q4.376,14.034,9.748,27.731c1.285,3.28,5.02,11.538,1.46,3.682,2.311,5.1,4.605,10.19,7.065,15.214a415.135,415.135,0,0,0,29.452,50.755c2.753,4.055,5.611,8.034,8.476,12.013,1.226,1.7,2.5,3.379,3.758,5.06-.422-.56-4.823-6.066-1.285-1.7,6.642,8.189,13.421,16.226,20.6,23.957,13.513,14.551,28.15,27.7,43.344,40.45,7.14,5.987-4.1-2.72,3.491,2.71,4.065,2.908,8.084,5.868,12.2,8.7q13.317,9.148,27.326,17.222,12.244,7.057,24.952,13.259c4.592,2.242,9.247,4.345,13.9,6.474.551.251,7.269,3.073,2.192.969-5.624-2.331,6.633,2.532,6.4,2.443a419.878,419.878,0,0,0,58.146,17.423c26.393,5.875,41.26,7.694,67.047,9.633,105.37,7.922,200.092-8.868,300.49-43.073,93.9-31.994,184.242-79.62,269.117-137.407,83.226-56.659,163.671-118.161,252.864-165.425,91.257-48.355,190.673-79.59,294.428-82.65a568.757,568.757,0,0,1,284.337,67.1c87.255,46.967,162.2,121.167,208.469,208.933,47.1,89.361,66.889,189.088,74.589,289.031,3.547,46.034,4.253,92.223,3.761,138.373-.274,25.855-22.549,50.656-49.449,49.449-26.557-1.19-49.743-21.735-49.449-49.449" transform="translate(-0.001 -0.002)" fill="#3cb4be"/>
        </g>
      </g>
    </g>
  </g>
</svg>
