<svg xmlns="http://www.w3.org/2000/svg" xmlns:xlink="http://www.w3.org/1999/xlink" width="1920" height="932" viewBox="0 0 1920 932">
  <defs>
    <clipPath id="clip-path">
      <rect id="Rectangle_1396" data-name="Rectangle 1396" width="1920" height="932" transform="translate(0 3019)" fill="#fff" stroke="#707070" stroke-width="1"/>
    </clipPath>
    <clipPath id="clip-path-2">
      <rect id="Rectangle_472" data-name="Rectangle 472" width="1920" height="1039" transform="translate(0 3131)" fill="#41286e"/>
    </clipPath>
    <clipPath id="clip-path-3">
      <rect id="Rectangle_19" data-name="Rectangle 19" width="2648.573" height="1785.619" fill="#3cb4be"/>
    </clipPath>
  </defs>
  <g id="Mask_Group_47" data-name="Mask Group 47" transform="translate(0 -3019)" clip-path="url(#clip-path)">
    <g id="Mask_Group_37" data-name="Mask Group 37" transform="translate(0 -125)" clip-path="url(#clip-path-2)">
      <g id="Group_96" data-name="Group 96" transform="translate(-364.287 2503.886)" opacity="0.1">
        <g id="Group_15" data-name="Group 15" clip-path="url(#clip-path-3)">
          <path id="Path_10" data-name="Path 10" d="M99.038,1736.129c-.527-49.581.323-99.222,4.6-148.645,1.035-11.97,2.307-23.911,3.722-35.838a67.683,67.683,0,0,1,.959-7.213c1.005-6.758,2.047-13.51,3.194-20.245a709.965,709.965,0,0,1,16.025-72.011q4.772-17.025,10.529-33.757,2.878-8.332,6.013-16.575c1.193-3.135,2.436-6.251,3.676-9.369.857-2.156,2.98-6.943.864-2.1a468.565,468.565,0,0,1,34.3-64.482c14.353-22.47,22.453-32.854,41.191-52.9a513.924,513.924,0,0,1,51.642-48.523c7.727-6.27,3.659-2.822,1.912-1.513q3.021-2.26,6.076-4.467,7.116-5.153,14.423-10.042,15.656-10.459,32.109-19.631,15.344-8.57,31.272-16.012c1.81-.844,15.118-6.758,8.874-4.121,6.168-2.6,12.442-4.991,18.728-7.3a514.711,514.711,0,0,1,70.066-20.2c11.5-2.453,23.08-4.556,34.724-6.2,5.858-.828.415-.013-.653.112,3.339-.389,6.679-.768,10.025-1.1q10.033-1.009,20.1-1.632a522.953,522.953,0,0,1,70.531.386q8.792.643,17.561,1.6c1.131.122,11.462,1.355,5.927.636-4.942-.64,3.247.495,3.4.517,13.078,2.07,26.149,4.3,39.1,7.045a563.517,563.517,0,0,1,75.044,21.6c23.762,8.6,39.207,15.464,64.169,28,92.612,46.529,175.473,109.5,260.641,167.95,90.275,61.953,187.585,113.229,290.937,149.739,188.132,66.453,425.99,86.563,596.092-36.78,146.865-106.494,221.329-288.046,185.649-466.805-20.538-102.9-77.952-198.539-164-259.316-72.721-51.361-181.381-69.094-253.794-7.955-46.608,39.352-58.653,110.051-37.3,165.7,19.1,49.779,56.132,89.041,101.53,116.364,99.073,59.623,227.757,57.506,318.787-15.814,54.144-43.614,86.869-110.361,103.208-176.768,27.24-110.72,22.371-229.494,42.12-338.662a706.843,706.843,0,0,1,19.52-80.593q4.723-15.473,10.16-30.718,2.64-7.378,5.462-14.68,1.192-3.086,2.417-6.161c-.076.188,4.988-11.963,2.492-6.155-2.215,5.166.634-1.371.92-1.988,1.2-2.568,2.317-5.169,3.507-7.74q3.081-6.651,6.346-13.213,6.824-13.7,14.482-26.96a457.939,457.939,0,0,1,30.349-45.612c-7.312,9.722,2.621-3.03,4.173-4.882q3.65-4.351,7.421-8.6,9.372-10.557,19.467-20.436,9.391-9.2,19.357-17.775c3.333-2.865,6.765-5.6,10.118-8.439,1.734-1.47,7.375-5.733-1.1.729q3.016-2.3,6.059-4.556c30.7-22.668,64.255-41.247,99.057-56.811,1.995-.89,14.295-6.142,9.455-4.137-4.771,1.975,8.241-3.277,9.851-3.907q13.178-5.177,26.527-9.89c20.868-7.394,42-13.988,63.276-20.113,25.661-7.388,41.673-34.865,34.539-60.826-7.039-25.6-35.073-41.956-60.829-34.539-77.653,22.361-155.9,51.543-222.519,98.164-63.516,44.448-115.554,102.347-151.332,171.306-47.659,91.85-68.069,192.322-78.308,294.537-9.913,98.981-11.607,193.492-44.686,287.515,3.155-8.974.88-1.991-1.338,2.806q-2.161,4.673-4.48,9.273c-3.708,7.352-7.724,14.555-12.075,21.55-3.583,5.756-7.849,11.083-11.422,16.82-3.373,5.416,6.461-7.457,2.185-2.806-1.006,1.094-1.849,2.354-2.832,3.475-2.584,2.944-5.09,5.95-7.754,8.825q-6.3,6.8-13.164,13.051c-2.4,2.186-4.882,4.279-7.354,6.389-1.042.89-2.176,1.685-3.2,2.594-4.243,3.738,10.431-7.18,2.414-1.978a325.76,325.76,0,0,1-31.826,18.741c-9.5,4.744,2.235-1.2,2.367-.837.04.119-7.345,2.835-8.37,3.2q-8.371,3-16.981,5.255c-5.7,1.5-11.443,2.647-17.225,3.758-2.113.409-11.334,1.7-2.1.445,9.653-1.315-2.271.142-4.618.333a232.213,232.213,0,0,1-34.832.211c-2.888-.2-5.766-.5-8.65-.745-8.716-.745-.264-1.559,3.316.541-4.183-2.456-13.4-2.278-18.21-3.339a256.777,256.777,0,0,1-32.871-9.62c-2.658-.973-5.268-2.07-7.922-3.049-7.757-2.858,10.308,4.879,2.934,1.2-5.357-2.673-10.806-5.083-16.087-7.922a281.3,281.3,0,0,1-26.805-16.747c-8.492-5.881,3.069,2.647,1.787,1.493-1.962-1.767-4.124-3.339-6.129-5.06q-5.944-5.093-11.488-10.635c-3.62-3.626-7-7.44-10.391-11.275-1.124-1.269-2.628-4.256-4.094-5.011,7.038,3.63,6.5,9.3,3.86,4.892-.722-1.207-1.681-2.285-2.453-3.465-2.67-4.1-5.351-8.162-7.734-12.448-1-1.806-1.909-3.659-2.895-5.476-4.325-7.968-.016-3.8.745,2.512-1.019-8.459-5.647-18.53-7.717-27.022-1.7-6.992.784,14.149.679,4.207-.023-2-.274-4.009-.33-6.013-.122-4.266,1.678-11.235.609-15.184.851,3.138-2.509,13.341-.567,4.975.554-2.387.972-4.8,1.573-7.18,1.2-4.78,4.622-10.668,5.027-15.441-.191,2.262-6.339,9.231-2.172,5.885,1.187-.953,2.509-3.933,3.319-5.265,4.754-7.8.983-.946-.385.471,1.355-1.4,2.555-2.964,4-4.282,3.1-2.835,11.222-8.6,3.1-3.376,4.256-2.736,8.538-5.176,12.932-7.671,7.75-4.4-6.567,1.414,2.126-.735,4.3-1.062,8.564-2.38,12.87-3.468,1.866-.468,3.785-.705,5.667-1.088-1.751.353-10.813.785-1.566.336,5.278-.254,10.5-.574,15.8-.471,4.019.079,8,.478,12.013.666,2.538.119,9.25,1.734-1.075-.277,2,.389,4.031.62,6.026,1.052a255.918,255.918,0,0,1,27.751,7.289c3.4,1.144,14.235,5.486,5.36,1.625q6.493,2.824,12.778,6.089a217.012,217.012,0,0,1,23.515,14.324c9.89,6.831,11.852,8.149,22.575,17.861a316.223,316.223,0,0,1,25.978,26.528c25.872,29.666,49.657,74.922,61.891,112.919a419.94,419.94,0,0,1,14.558,60.711c.353,2.166.672,4.338.989,6.511-.112-.768-.705-8.1-.369-2.3.29,5.051,1.075,10.1,1.463,15.158q1.162,15.062,1.19,30.184.025,14.978-1.068,29.927c-.36,4.955-.854,9.893-1.365,14.831-.214,2.113-.485,4.22-.742,6.33.547-4.5.887-5.8-.026-.557a453.245,453.245,0,0,1-13.437,57.447q-4.376,14.034-9.748,27.731c-1.286,3.28-5.021,11.538-1.46,3.682-2.311,5.1-4.605,10.19-7.065,15.214a415.151,415.151,0,0,1-29.452,50.755c-2.753,4.055-5.611,8.034-8.476,12.013-1.226,1.7-2.5,3.379-3.758,5.06.422-.56,4.823-6.066,1.286-1.7-6.642,8.189-13.421,16.226-20.6,23.957-13.513,14.551-28.15,27.7-43.344,40.45-7.14,5.987,4.1-2.72-3.491,2.71-4.065,2.908-8.084,5.868-12.2,8.7q-13.317,9.148-27.325,17.222-12.244,7.057-24.952,13.259c-4.592,2.242-9.247,4.345-13.9,6.474-.551.251-7.269,3.073-2.192.969,5.624-2.331-6.633,2.532-6.4,2.443a419.873,419.873,0,0,1-58.146,17.423c-26.393,5.875-41.26,7.694-67.047,9.633-105.37,7.922-200.092-8.868-300.49-43.073-93.9-31.994-184.242-79.62-269.117-137.407-83.226-56.659-163.671-118.161-252.864-165.425-91.257-48.355-190.673-79.59-294.428-82.65a568.757,568.757,0,0,0-284.337,67.1c-87.255,46.967-162.2,121.167-208.469,208.933C31.387,1398.086,11.6,1497.812,3.9,1597.756.353,1643.79-.352,1689.979.139,1736.129c.274,25.855,22.549,50.656,49.449,49.449,26.557-1.19,49.743-21.735,49.449-49.449" transform="translate(0 -0.002)" fill="#3cb4be"/>
        </g>
      </g>
    </g>
  </g>
</svg>
