<svg xmlns="http://www.w3.org/2000/svg" width="65.653" height="59.748" viewBox="0 0 65.653 59.748">
  <g id="Group_733" data-name="Group 733" transform="translate(0.75 0.75)">
    <g id="Group_737" data-name="Group 737" transform="translate(0 0)">
      <path id="Path_257" data-name="Path 257" d="M17.651,27.727H3.765a7.317,7.317,0,0,1,5.051-12.61c.167,0,.329.005.491.02v-.02A13.62,13.62,0,0,1,32.571,5.5,24.024,24.024,0,0,1,65.653,27.727H41.148" transform="translate(-1.5 -1.5)" fill="none" stroke="#fff" stroke-linecap="round" stroke-linejoin="round" stroke-width="1.5"/>
      <path id="Path_258" data-name="Path 258" d="M33.5,53.226H33.38V53.18Z" transform="translate(-17.229 -26.998)" fill="none" stroke="#fff" stroke-linecap="round" stroke-linejoin="round" stroke-width="1.5"/>
      <line id="Line_8" data-name="Line 8" x2="1.398" transform="translate(16.273 26.227)" fill="none" stroke="#fff" stroke-linecap="round" stroke-linejoin="round" stroke-width="1.5"/>
      <path id="Path_259" data-name="Path 259" d="M38.658,48.273l5.275,10.378H34.689L53.8,82.825,49.19,65.517H59.669L52.53,50.6" transform="translate(-17.875 -24.577)" fill="none" stroke="#fff" stroke-linecap="round" stroke-linejoin="round" stroke-width="1.5"/>
      <path id="Path_260" data-name="Path 260" d="M62.771,9.328a13.367,13.367,0,0,1,3.6,9.148" transform="translate(-31.73 -5.362)" fill="none" stroke="#fff" stroke-linecap="round" stroke-linejoin="round" stroke-width="1.5"/>
      <line id="Line_9" data-name="Line 9" transform="translate(33.349 23.288)" fill="none" stroke="#fff" stroke-linecap="round" stroke-linejoin="round" stroke-width="1.5"/>
    </g>
  </g>
</svg>
