<svg xmlns="http://www.w3.org/2000/svg" xmlns:xlink="http://www.w3.org/1999/xlink" width="1605.5" height="458.857" viewBox="0 0 1605.5 458.857">
  <defs>
    <clipPath id="clip-path">
      <rect id="Rectangle_1339" data-name="Rectangle 1339" width="547.1" height="458.857" fill="none"/>
    </clipPath>
  </defs>
  <g id="Group_666" data-name="Group 666" transform="translate(-719.297 -598)">
    <g id="Group_591" data-name="Group 591" transform="translate(719.297 598)">
      <path id="Path_1936" data-name="Path 1936" d="M34.122,273.38h0l4.909-82.391L43.94,273.38Z" transform="translate(23.64 132.322)" fill="#f37137"/>
      <path id="Path_1937" data-name="Path 1937" d="M34.122,273.38h0l4.909-82.391L43.94,273.38Z" transform="translate(23.64 132.322)" fill="none" stroke="#f37137" stroke-linecap="round" stroke-linejoin="round" stroke-width="3"/>
      <line id="Line_1257" data-name="Line 1257" y1="113.225" transform="translate(62.672 218.691)" fill="none" stroke="#f37137" stroke-linecap="round" stroke-linejoin="round" stroke-width="3"/>
      <g id="Group_657" data-name="Group 657">
        <g id="Group_656" data-name="Group 656" clip-path="url(#clip-path)">
          <path id="Path_1938" data-name="Path 1938" d="M55.064,135.426a12.8,12.8,0,1,1-12.8-12.8,12.8,12.8,0,0,1,12.8,12.8" transform="translate(20.411 84.958)" fill="#f37137"/>
          <path id="Path_1939" data-name="Path 1939" d="M55.064,135.426a12.8,12.8,0,1,1-12.8-12.8A12.8,12.8,0,0,1,55.064,135.426Z" transform="translate(20.411 84.958)" fill="none" stroke="#f37137" stroke-linecap="round" stroke-linejoin="round" stroke-width="3"/>
          <path id="Path_1940" data-name="Path 1940" d="M288.132,273.38h0l4.909-82.391,4.909,82.391Z" transform="translate(199.624 132.322)" fill="#f37137"/>
          <path id="Path_1941" data-name="Path 1941" d="M288.132,273.38h0l4.909-82.391,4.909,82.391Z" transform="translate(199.624 132.322)" fill="none" stroke="#f37137" stroke-linecap="round" stroke-linejoin="round" stroke-width="3"/>
          <line id="Line_1258" data-name="Line 1258" y1="113.225" transform="translate(492.666 218.691)" fill="none" stroke="#f37137" stroke-linecap="round" stroke-linejoin="round" stroke-width="3"/>
          <path id="Path_1942" data-name="Path 1942" d="M309.074,135.426a12.8,12.8,0,1,1-12.8-12.8,12.8,12.8,0,0,1,12.8,12.8" transform="translate(196.395 84.958)" fill="#f37137"/>
          <path id="Path_1943" data-name="Path 1943" d="M309.074,135.426a12.8,12.8,0,1,1-12.8-12.8A12.8,12.8,0,0,1,309.074,135.426Z" transform="translate(196.395 84.958)" fill="none" stroke="#f37137" stroke-linecap="round" stroke-linejoin="round" stroke-width="3"/>
          <path id="Path_1944" data-name="Path 1944" d="M202.354,185.449V102.157H80.6v83.292" transform="translate(55.845 70.777)" fill="none" stroke="#f37137" stroke-linecap="round" stroke-linejoin="round" stroke-width="3"/>
          <rect id="Rectangle_1331" data-name="Rectangle 1331" width="153.011" height="33.146" transform="translate(120.817 122.071)" fill="none" stroke="#f37137" stroke-linecap="round" stroke-linejoin="round" stroke-width="3"/>
          <path id="Path_1945" data-name="Path 1945" d="M188.056,111.486H86.6V64.842a49.562,49.562,0,0,1,49.561-49.563h2.334a49.562,49.562,0,0,1,49.563,49.563Z" transform="translate(59.997 10.586)" fill="none" stroke="#f37137" stroke-linecap="round" stroke-linejoin="round" stroke-width="3"/>
          <line id="Line_1259" data-name="Line 1259" x1="60.713" transform="translate(136.61 281.737)" fill="none" stroke="#f37137" stroke-linecap="round" stroke-linejoin="round" stroke-width="3"/>
          <line id="Line_1260" data-name="Line 1260" x1="39.83" transform="translate(219.699 281.737)" fill="none" stroke="#f37137" stroke-linecap="round" stroke-linejoin="round" stroke-width="3"/>
          <path id="Path_1946" data-name="Path 1946" d="M67.5,176.871,89.675,151.36l10.292,11.85h101.18l10.292-11.85,22.176,25.511" transform="translate(46.765 104.866)" fill="none" stroke="#f37137" stroke-linecap="round" stroke-linejoin="round" stroke-width="3"/>
          <path id="Path_1947" data-name="Path 1947" d="M224.381,91.691l-15.63,17.719H87L71.37,91.691" transform="translate(49.447 63.526)" fill="none" stroke="#f37137" stroke-linecap="round" stroke-linejoin="round" stroke-width="3"/>
          <line id="Line_1261" data-name="Line 1261" y2="123.966" transform="translate(114.234 281.737)" fill="none" stroke="#f37137" stroke-linecap="round" stroke-linejoin="round" stroke-width="3"/>
          <line id="Line_1262" data-name="Line 1262" y1="123.966" transform="translate(280.412 281.737)" fill="none" stroke="#f37137" stroke-linecap="round" stroke-linejoin="round" stroke-width="3"/>
          <path id="Path_1948" data-name="Path 1948" d="M336.736,194.916l-85.32-69.54H158.37" transform="translate(109.723 86.864)" fill="none" stroke="#f37137" stroke-linecap="round" stroke-linejoin="round" stroke-width="3"/>
          <line id="Line_1263" data-name="Line 1263" y1="11.234" transform="translate(136.448 172.934)" fill="none" stroke="#f37137" stroke-linecap="round" stroke-linejoin="round" stroke-width="3"/>
          <line id="Line_1264" data-name="Line 1264" y1="11.234" transform="translate(156.74 172.934)" fill="none" stroke="#f37137" stroke-linecap="round" stroke-linejoin="round" stroke-width="3"/>
          <line id="Line_1265" data-name="Line 1265" y1="11.234" transform="translate(177.032 172.934)" fill="none" stroke="#f37137" stroke-linecap="round" stroke-linejoin="round" stroke-width="3"/>
          <line id="Line_1266" data-name="Line 1266" y1="11.234" transform="translate(197.323 172.934)" fill="none" stroke="#f37137" stroke-linecap="round" stroke-linejoin="round" stroke-width="3"/>
          <line id="Line_1267" data-name="Line 1267" y1="11.234" transform="translate(217.615 172.934)" fill="none" stroke="#f37137" stroke-linecap="round" stroke-linejoin="round" stroke-width="3"/>
          <line id="Line_1268" data-name="Line 1268" y1="11.234" transform="translate(237.907 172.934)" fill="none" stroke="#f37137" stroke-linecap="round" stroke-linejoin="round" stroke-width="3"/>
          <line id="Line_1269" data-name="Line 1269" y1="11.234" transform="translate(258.198 172.934)" fill="none" stroke="#f37137" stroke-linecap="round" stroke-linejoin="round" stroke-width="3"/>
          <line id="Line_1270" data-name="Line 1270" y1="11.234" transform="translate(156.74 73.69)" fill="none" stroke="#f37137" stroke-linecap="round" stroke-linejoin="round" stroke-width="3"/>
          <line id="Line_1271" data-name="Line 1271" y1="11.234" transform="translate(177.032 73.69)" fill="none" stroke="#f37137" stroke-linecap="round" stroke-linejoin="round" stroke-width="3"/>
          <line id="Line_1272" data-name="Line 1272" y1="11.234" transform="translate(197.323 73.69)" fill="none" stroke="#f37137" stroke-linecap="round" stroke-linejoin="round" stroke-width="3"/>
          <line id="Line_1273" data-name="Line 1273" y1="11.234" transform="translate(217.615 73.69)" fill="none" stroke="#f37137" stroke-linecap="round" stroke-linejoin="round" stroke-width="3"/>
          <line id="Line_1274" data-name="Line 1274" y1="11.234" transform="translate(237.907 73.69)" fill="none" stroke="#f37137" stroke-linecap="round" stroke-linejoin="round" stroke-width="3"/>
          <path id="Path_1949" data-name="Path 1949" d="M139.785,70.325a5.617,5.617,0,1,1-5.617-5.617,5.617,5.617,0,0,1,5.617,5.617" transform="translate(89.063 44.831)" fill="#f37137"/>
          <circle id="Ellipse_28" data-name="Ellipse 28" cx="5.617" cy="5.617" r="5.617" transform="translate(217.614 109.539)" fill="none" stroke="#f37137" stroke-linecap="round" stroke-linejoin="round" stroke-width="3"/>
          <path id="Path_1950" data-name="Path 1950" d="M109.416,70.325a5.617,5.617,0,1,1-5.617-5.617,5.617,5.617,0,0,1,5.617,5.617" transform="translate(68.023 44.831)" fill="#f37137"/>
          <circle id="Ellipse_29" data-name="Ellipse 29" cx="5.617" cy="5.617" r="5.617" transform="translate(166.204 109.539)" fill="none" stroke="#f37137" stroke-linecap="round" stroke-linejoin="round" stroke-width="3"/>
          <path id="Path_1951" data-name="Path 1951" d="M79.286,70.325a5.617,5.617,0,1,1-5.617-5.617,5.617,5.617,0,0,1,5.617,5.617" transform="translate(47.148 44.831)" fill="#f37137"/>
          <circle id="Ellipse_30" data-name="Ellipse 30" cx="5.617" cy="5.617" r="5.617" transform="translate(115.201 109.539)" fill="none" stroke="#f37137" stroke-linecap="round" stroke-linejoin="round" stroke-width="3"/>
          <path id="Path_1952" data-name="Path 1952" d="M169.674,70.325a5.617,5.617,0,1,1-5.617-5.617,5.617,5.617,0,0,1,5.617,5.617" transform="translate(109.771 44.831)" fill="#f37137"/>
          <circle id="Ellipse_31" data-name="Ellipse 31" cx="5.617" cy="5.617" r="5.617" transform="translate(268.211 109.539)" fill="none" stroke="#f37137" stroke-linecap="round" stroke-linejoin="round" stroke-width="3"/>
          <rect id="Rectangle_1332" data-name="Rectangle 1332" width="18.738" height="40.574" transform="translate(187.954 208.881)" fill="#f37137"/>
          <rect id="Rectangle_1333" data-name="Rectangle 1333" width="18.738" height="40.574" transform="translate(187.954 208.881)" fill="none" stroke="#f37137" stroke-linecap="round" stroke-linejoin="round" stroke-width="3"/>
          <rect id="Rectangle_1334" data-name="Rectangle 1334" width="51.003" height="33.146" transform="translate(171.734 122.071)" fill="none" stroke="#f37137" stroke-linecap="round" stroke-linejoin="round" stroke-width="3"/>
          <line id="Line_1275" data-name="Line 1275" y2="123.966" transform="translate(280.292 281.737)" fill="none" stroke="#f37137" stroke-linecap="round" stroke-linejoin="round" stroke-width="3"/>
          <path id="Path_1953" data-name="Path 1953" d="M180.512,166.43H291.654" transform="translate(125.063 115.307)" fill="none" stroke="#f37137" stroke-linecap="round" stroke-linejoin="round" stroke-width="3"/>
          <line id="Line_1276" data-name="Line 1276" y1="103.713" transform="translate(446.459 281.737)" fill="none" stroke="#f37137" stroke-linecap="round" stroke-linejoin="round" stroke-width="3"/>
          <line id="Line_1277" data-name="Line 1277" x2="166.174" transform="translate(280.285 405.702)" fill="none" stroke="#f37137" stroke-linecap="round" stroke-linejoin="round" stroke-width="3"/>
          <rect id="Rectangle_1335" data-name="Rectangle 1335" width="49.266" height="40.574" transform="translate(338.739 321.312)" fill="#f37137"/>
          <rect id="Rectangle_1336" data-name="Rectangle 1336" width="49.266" height="40.574" transform="translate(338.739 321.312)" fill="none" stroke="#f37137" stroke-linecap="round" stroke-linejoin="round" stroke-width="3"/>
          <rect id="Rectangle_1337" data-name="Rectangle 1337" width="28.895" height="40.574" transform="translate(182.876 321.312)" fill="#f37137"/>
          <rect id="Rectangle_1338" data-name="Rectangle 1338" width="28.895" height="40.574" transform="translate(182.876 321.312)" fill="none" stroke="#f37137" stroke-linecap="round" stroke-linejoin="round" stroke-width="3"/>
          <line id="Line_1278" data-name="Line 1278" x1="117.729" transform="translate(138.458 73.691)" fill="none" stroke="#f37137" stroke-linecap="round" stroke-linejoin="round" stroke-width="3"/>
          <path id="Path_1954" data-name="Path 1954" d="M108.014,147.36h28.949" transform="translate(74.835 102.094)" fill="none" stroke="#f37137" stroke-linecap="round" stroke-linejoin="round" stroke-width="3"/>
          <path id="Path_1955" data-name="Path 1955" d="M108.014,135.36h28.949" transform="translate(74.835 93.781)" fill="none" stroke="#f37137" stroke-linecap="round" stroke-linejoin="round" stroke-width="3"/>
          <path id="Path_1956" data-name="Path 1956" d="M108.014,123.392h28.949" transform="translate(74.835 85.489)" fill="none" stroke="#f37137" stroke-linecap="round" stroke-linejoin="round" stroke-width="3"/>
          <path id="Path_1957" data-name="Path 1957" d="M256.565,189.808H197.087" transform="translate(136.547 131.504)" fill="none" stroke="#f37137" stroke-linecap="round" stroke-linejoin="round" stroke-width="3"/>
          <path id="Path_1958" data-name="Path 1958" d="M256.565,201.792H197.087" transform="translate(136.547 139.807)" fill="none" stroke="#f37137" stroke-linecap="round" stroke-linejoin="round" stroke-width="3"/>
          <path id="Path_1959" data-name="Path 1959" d="M256.565,213.776H197.087" transform="translate(136.547 148.109)" fill="none" stroke="#f37137" stroke-linecap="round" stroke-linejoin="round" stroke-width="3"/>
          <path id="Path_1960" data-name="Path 1960" d="M144.12,189.808H105.014" transform="translate(72.756 131.504)" fill="none" stroke="#f37137" stroke-linecap="round" stroke-linejoin="round" stroke-width="3"/>
          <path id="Path_1961" data-name="Path 1961" d="M144.12,201.792H105.014" transform="translate(72.756 139.807)" fill="none" stroke="#f37137" stroke-linecap="round" stroke-linejoin="round" stroke-width="3"/>
          <path id="Path_1962" data-name="Path 1962" d="M144.12,213.776H105.014" transform="translate(72.756 148.109)" fill="none" stroke="#f37137" stroke-linecap="round" stroke-linejoin="round" stroke-width="3"/>
          <line id="Line_1279" data-name="Line 1279" transform="translate(446.459 395.646)" fill="none" stroke="#f37137" stroke-linecap="round" stroke-linejoin="round" stroke-width="3"/>
          <path id="Path_1963" data-name="Path 1963" d="M263.737,239.66h98.1v50.615" transform="translate(182.723 166.042)" fill="none" stroke="#f37137" stroke-linecap="round" stroke-linejoin="round" stroke-width="3"/>
          <path id="Path_1964" data-name="Path 1964" d="M1.5,290.275V239.66H113.2" transform="translate(1.039 166.042)" fill="none" stroke="#f37137" stroke-linecap="round" stroke-linejoin="round" stroke-width="3"/>
          <line id="Line_1280" data-name="Line 1280" transform="translate(126.454 281.737)" fill="none" stroke="#f37137" stroke-linecap="round" stroke-linejoin="round" stroke-width="3"/>
          <line id="Line_1281" data-name="Line 1281" transform="translate(426.914 281.737)" fill="none" stroke="#f37137" stroke-linecap="round" stroke-linejoin="round" stroke-width="3"/>
          <path id="Path_1965" data-name="Path 1965" d="M125.142,14.006a5.617,5.617,0,1,1-5.617-5.617,5.617,5.617,0,0,1,5.617,5.617" transform="translate(78.918 5.812)" fill="#f37137"/>
          <circle id="Ellipse_32" data-name="Ellipse 32" cx="5.617" cy="5.617" r="5.617" transform="translate(192.827 14.201)" fill="none" stroke="#f37137" stroke-linecap="round" stroke-linejoin="round" stroke-width="3"/>
          <line id="Line_1282" data-name="Line 1282" y1="23.327" transform="translate(198.421 2.538)" fill="none" stroke="#f37137" stroke-linecap="round" stroke-linejoin="round" stroke-width="3"/>
        </g>
      </g>
    </g>
    <g id="Group_592" data-name="Group 592" transform="translate(1268.936 754.586)">
      <g id="Group_665" data-name="Group 665" transform="translate(0 0)">
        <path id="Path_1966" data-name="Path 1966" d="M1.5,172.061c16.41,0,16.41,11.619,32.822,11.619s16.415-11.619,32.831-11.619S83.57,183.68,99.989,183.68s16.415-11.619,32.831-11.619,16.415,11.619,32.832,11.619,16.417-11.619,32.834-11.619,16.42,11.619,32.841,11.619,16.419-11.619,32.836-11.619S280.581,183.68,297,183.68s16.42-11.619,32.839-11.619,16.415,11.619,32.829,11.619,16.419-11.619,32.837-11.619,16.424,11.619,32.848,11.619,16.42-11.619,32.839-11.619,16.431,11.619,32.859,11.619" transform="translate(-1.5 116.669)" fill="none" stroke="#f37137" stroke-linecap="round" stroke-linejoin="round" stroke-width="3"/>
        <path id="Path_1967" data-name="Path 1967" d="M661.777,183.68c-16.417,0-16.417-11.619-32.836-11.619S612.521,183.68,596.1,183.68s-16.417-11.619-32.834-11.619-16.419,11.619-32.839,11.619-16.419-11.619-32.839-11.619-16.414,11.619-32.827,11.619-16.419-11.619-32.837-11.619S415.5,183.68,399.075,183.68s-16.419-11.619-32.838-11.619-16.43,11.619-32.861,11.619" transform="translate(228.432 116.669)" fill="none" stroke="#f37137" stroke-linecap="round" stroke-linejoin="round" stroke-width="3"/>
        <path id="Path_1968" data-name="Path 1968" d="M662.419,172.061c-16.41,0-16.41,11.619-32.822,11.619s-16.415-11.619-32.831-11.619c-14.365,0-16.161,8.9-27.385,11.12" transform="translate(391.942 116.669)" fill="none" stroke="#f37137" stroke-linecap="round" stroke-linejoin="round" stroke-width="3"/>
        <path id="Path_1969" data-name="Path 1969" d="M292.464,191.749s12.024,0,21.785-12.312c10.135-12.784,16.292-16.837,24.607-18.592,9.084-1.918,14.736,2.9,17.663,8.4a3.859,3.859,0,0,1-3.712,5.588c-2.532-.112-5.258.4-6.841,2.59-3.555,4.921.019,14.072,15.755,14.328" transform="translate(200.087 108.601)" fill="none" stroke="#f37137" stroke-linecap="round" stroke-linejoin="round" stroke-width="3"/>
        <path id="Path_1970" data-name="Path 1970" d="M528.138,191.749s12.026,0,21.787-12.312c10.135-12.784,16.29-16.837,24.607-18.592,9.082-1.918,14.734,2.9,17.661,8.4a3.858,3.858,0,0,1-3.712,5.588c-2.531-.112-5.258.4-6.841,2.59-3.555,4.921.735,15.819,16.316,13.829" transform="translate(363.367 108.601)" fill="none" stroke="#f37137" stroke-linecap="round" stroke-linejoin="round" stroke-width="3"/>
        <path id="Path_1971" data-name="Path 1971" d="M563.883,163.331a29.44,29.44,0,0,1,7.3-2.487c9.084-1.918,14.734,2.9,17.663,8.4a3.86,3.86,0,0,1-3.712,5.588c-2.534-.112-5.258.4-6.842,2.588-2.165,3-1.684,7.569,2.581,10.738" transform="translate(388.133 108.601)" fill="none" stroke="#f37137" stroke-linecap="round" stroke-linejoin="round" stroke-width="3"/>
        <path id="Path_1973" data-name="Path 1973" d="M601.114,226.978l61.6-120.9H426.592" transform="translate(293.014 70.954)" fill="none" stroke="#f37137" stroke-linecap="round" stroke-linejoin="round" stroke-width="3"/>
        <path id="Path_1974" data-name="Path 1974" d="M344.522,68.358a8.043,8.043,0,1,0,8.043-8.043,8.042,8.042,0,0,0-8.043,8.043" transform="translate(236.154 39.249)" fill="#f37137"/>
        <path id="Path_1975" data-name="Path 1975" d="M344.522,68.358a8.043,8.043,0,1,0,8.043-8.043A8.042,8.042,0,0,0,344.522,68.358Z" transform="translate(236.154 39.249)" fill="none" stroke="#f37137" stroke-linecap="round" stroke-linejoin="round" stroke-width="3"/>
        <path id="Path_1976" data-name="Path 1976" d="M196.78,120.2H132.727l16.622,97.618" transform="translate(89.417 80.735)" fill="none" stroke="#f37137" stroke-linecap="round" stroke-linejoin="round" stroke-width="3"/>
        <path id="Path_1977" data-name="Path 1977" d="M222.276,51.583H181.738A10.045,10.045,0,0,0,171.86,59.8l-4.738,25.553A10.046,10.046,0,0,0,177,97.23h5.751a15.532,15.532,0,0,1,15.533,15.532v54.969H183.106" transform="translate(113.128 33.199)" fill="none" stroke="#f37137" stroke-linecap="round" stroke-linejoin="round" stroke-width="3"/>
        <line id="Line_1283" data-name="Line 1283" x2="665.097" transform="translate(232.581 249.734)" fill="none" stroke="#f37137" stroke-linecap="round" stroke-linejoin="round" stroke-width="3"/>
        <path id="Path_1978" data-name="Path 1978" d="M501.935,97.23l-32.5-45.647h-269.8" transform="translate(135.772 33.199)" fill="none" stroke="#f37137" stroke-linecap="round" stroke-linejoin="round" stroke-width="3"/>
        <path id="Path_1979" data-name="Path 1979" d="M479.376,125.152l-32.5-46.6H350.405" transform="translate(240.23 51.881)" fill="none" stroke="#f37137" stroke-linecap="round" stroke-linejoin="round" stroke-width="3"/>
        <line id="Line_1284" data-name="Line 1284" x1="234.37" transform="translate(711.445 165.531)" fill="none" stroke="#f37137" stroke-linecap="round" stroke-linejoin="round" stroke-width="3"/>
        <line id="Line_1285" data-name="Line 1285" y1="11.234" transform="translate(933.479 165.531)" fill="none" stroke="#f37137" stroke-linecap="round" stroke-linejoin="round" stroke-width="3"/>
        <line id="Line_1286" data-name="Line 1286" y1="11.234" transform="translate(913.188 165.531)" fill="none" stroke="#f37137" stroke-linecap="round" stroke-linejoin="round" stroke-width="3"/>
        <line id="Line_1287" data-name="Line 1287" y1="11.234" transform="translate(892.896 165.531)" fill="none" stroke="#f37137" stroke-linecap="round" stroke-linejoin="round" stroke-width="3"/>
        <line id="Line_1288" data-name="Line 1288" y1="11.234" transform="translate(872.604 165.531)" fill="none" stroke="#f37137" stroke-linecap="round" stroke-linejoin="round" stroke-width="3"/>
        <line id="Line_1289" data-name="Line 1289" y1="11.234" transform="translate(852.313 165.531)" fill="none" stroke="#f37137" stroke-linecap="round" stroke-linejoin="round" stroke-width="3"/>
        <line id="Line_1290" data-name="Line 1290" y1="11.234" transform="translate(832.021 165.531)" fill="none" stroke="#f37137" stroke-linecap="round" stroke-linejoin="round" stroke-width="3"/>
        <line id="Line_1291" data-name="Line 1291" y1="11.234" transform="translate(811.729 165.531)" fill="none" stroke="#f37137" stroke-linecap="round" stroke-linejoin="round" stroke-width="3"/>
        <line id="Line_1292" data-name="Line 1292" y1="11.234" transform="translate(791.438 165.531)" fill="none" stroke="#f37137" stroke-linecap="round" stroke-linejoin="round" stroke-width="3"/>
        <line id="Line_1293" data-name="Line 1293" y1="11.234" transform="translate(771.146 165.531)" fill="none" stroke="#f37137" stroke-linecap="round" stroke-linejoin="round" stroke-width="3"/>
        <line id="Line_1294" data-name="Line 1294" y1="11.234" transform="translate(750.854 165.531)" fill="none" stroke="#f37137" stroke-linecap="round" stroke-linejoin="round" stroke-width="3"/>
        <line id="Line_1295" data-name="Line 1295" y1="11.234" transform="translate(730.563 165.531)" fill="none" stroke="#f37137" stroke-linecap="round" stroke-linejoin="round" stroke-width="3"/>
        <line id="Line_1296" data-name="Line 1296" y2="18.601" transform="translate(479.982 66.182)" fill="none" stroke="#f37137" stroke-linecap="round" stroke-linejoin="round" stroke-width="3"/>
        <path id="Path_1980" data-name="Path 1980" d="M345.267,76.493,319.614,15.63H285.039V37.517" transform="translate(194.943 8.29)" fill="none" stroke="#f37137" stroke-linecap="round" stroke-linejoin="round" stroke-width="3"/>
        <path id="Path_1981" data-name="Path 1981" d="M269.759,86.283,242.315,1.5H205.323V86.283" transform="translate(139.714 -1.5)" fill="none" stroke="#f37137" stroke-linecap="round" stroke-linejoin="round" stroke-width="3"/>
        <path id="Path_1982" data-name="Path 1982" d="M378.89,66.809l15.645-37.2H328.911v37.2Z" transform="translate(225.338 17.974)" fill="none" stroke="#f37137" stroke-linecap="round" stroke-linejoin="round" stroke-width="3"/>
        <rect id="Rectangle_1340" data-name="Rectangle 1340" width="82.552" height="12.195" transform="translate(545.298 35.387)" fill="none" stroke="#f37137" stroke-linecap="round" stroke-linejoin="round" stroke-width="3"/>
        <rect id="Rectangle_1341" data-name="Rectangle 1341" width="33.625" height="21.726" transform="translate(641.091 151.858)" fill="#f37137"/>
        <rect id="Rectangle_1342" data-name="Rectangle 1342" width="33.625" height="21.726" transform="translate(641.091 151.858)" fill="none" stroke="#f37137" stroke-linecap="round" stroke-linejoin="round" stroke-width="3"/>
        <rect id="Rectangle_1343" data-name="Rectangle 1343" width="16.811" height="10.863" transform="translate(597.118 49.398)" fill="#f37137"/>
        <rect id="Rectangle_1344" data-name="Rectangle 1344" width="16.811" height="10.863" transform="translate(597.118 49.398)" fill="none" stroke="#f37137" stroke-linecap="round" stroke-linejoin="round" stroke-width="3"/>
        <rect id="Rectangle_1345" data-name="Rectangle 1345" width="16.811" height="10.863" transform="translate(570.248 49.398)" fill="#f37137"/>
        <rect id="Rectangle_1346" data-name="Rectangle 1346" width="16.811" height="10.863" transform="translate(570.248 49.398)" fill="none" stroke="#f37137" stroke-linecap="round" stroke-linejoin="round" stroke-width="3"/>
        <rect id="Rectangle_1347" data-name="Rectangle 1347" width="33.625" height="21.726" transform="translate(596.82 151.858)" fill="#f37137"/>
        <rect id="Rectangle_1348" data-name="Rectangle 1348" width="33.625" height="21.726" transform="translate(596.82 151.858)" fill="none" stroke="#f37137" stroke-linecap="round" stroke-linejoin="round" stroke-width="3"/>
        <rect id="Rectangle_1349" data-name="Rectangle 1349" width="33.625" height="21.726" transform="translate(552.55 151.858)" fill="#f37137"/>
        <rect id="Rectangle_1350" data-name="Rectangle 1350" width="33.625" height="21.726" transform="translate(552.55 151.858)" fill="none" stroke="#f37137" stroke-linecap="round" stroke-linejoin="round" stroke-width="3"/>
        <rect id="Rectangle_1351" data-name="Rectangle 1351" width="33.625" height="21.726" transform="translate(508.277 151.858)" fill="#f37137"/>
        <rect id="Rectangle_1352" data-name="Rectangle 1352" width="33.625" height="21.726" transform="translate(508.277 151.858)" fill="none" stroke="#f37137" stroke-linecap="round" stroke-linejoin="round" stroke-width="3"/>
        <rect id="Rectangle_1353" data-name="Rectangle 1353" width="33.625" height="21.726" transform="translate(431.887 151.858)" fill="#f37137"/>
        <rect id="Rectangle_1354" data-name="Rectangle 1354" width="33.625" height="21.726" transform="translate(431.887 151.858)" fill="none" stroke="#f37137" stroke-linecap="round" stroke-linejoin="round" stroke-width="3"/>
        <rect id="Rectangle_1355" data-name="Rectangle 1355" width="33.625" height="21.726" transform="translate(387.616 151.858)" fill="#f37137"/>
        <rect id="Rectangle_1356" data-name="Rectangle 1356" width="33.625" height="21.726" transform="translate(387.616 151.858)" fill="none" stroke="#f37137" stroke-linecap="round" stroke-linejoin="round" stroke-width="3"/>
        <rect id="Rectangle_1357" data-name="Rectangle 1357" width="33.625" height="21.726" transform="translate(343.345 151.858)" fill="#f37137"/>
        <rect id="Rectangle_1358" data-name="Rectangle 1358" width="33.625" height="21.726" transform="translate(343.345 151.858)" fill="none" stroke="#f37137" stroke-linecap="round" stroke-linejoin="round" stroke-width="3"/>
        <rect id="Rectangle_1359" data-name="Rectangle 1359" width="33.625" height="21.726" transform="translate(431.887 105.492)" fill="#f37137"/>
        <rect id="Rectangle_1360" data-name="Rectangle 1360" width="33.625" height="21.726" transform="translate(431.887 105.492)" fill="none" stroke="#f37137" stroke-linecap="round" stroke-linejoin="round" stroke-width="3"/>
        <rect id="Rectangle_1361" data-name="Rectangle 1361" width="33.625" height="21.726" transform="translate(387.616 105.492)" fill="#f37137"/>
        <rect id="Rectangle_1362" data-name="Rectangle 1362" width="33.625" height="21.726" transform="translate(387.616 105.492)" fill="none" stroke="#f37137" stroke-linecap="round" stroke-linejoin="round" stroke-width="3"/>
        <rect id="Rectangle_1363" data-name="Rectangle 1363" width="33.625" height="21.726" transform="translate(343.345 105.492)" fill="#f37137"/>
        <rect id="Rectangle_1364" data-name="Rectangle 1364" width="33.625" height="21.726" transform="translate(343.345 105.492)" fill="none" stroke="#f37137" stroke-linecap="round" stroke-linejoin="round" stroke-width="3"/>
        <line id="Line_1297" data-name="Line 1297" transform="translate(479.982 56.003)" fill="none" stroke="#f37137" stroke-linecap="round" stroke-linejoin="round" stroke-width="3"/>
        <line id="Line_1298" data-name="Line 1298" transform="translate(580.39 130.429)" fill="none" stroke="#f37137" stroke-linecap="round" stroke-linejoin="round" stroke-width="3"/>
      </g>
    </g>
  </g>
</svg>
