<svg xmlns="http://www.w3.org/2000/svg" xmlns:xlink="http://www.w3.org/1999/xlink" width="1920" height="869" viewBox="0 0 1920 869">
  <defs>
    <clipPath id="clip-path">
      <rect id="Rectangle_1401" data-name="Rectangle 1401" width="1920" height="869" transform="translate(0 11112)" fill="#fff" stroke="#707070" stroke-width="1"/>
    </clipPath>
    <clipPath id="clip-path-2">
      <rect id="Rectangle_519" data-name="Rectangle 519" width="1920" height="804" transform="translate(0 10983.429)" fill="#41286e"/>
    </clipPath>
    <clipPath id="clip-path-3">
      <rect id="Rectangle_19" data-name="Rectangle 19" width="1943" height="1309.935" transform="translate(0 0.001)" fill="#3cb4be"/>
    </clipPath>
  </defs>
  <g id="Mask_Group_47" data-name="Mask Group 47" transform="translate(0 -11112)" clip-path="url(#clip-path)">
    <g id="Mask_Group_40" data-name="Mask Group 40" transform="translate(0 124)" clip-path="url(#clip-path-2)">
      <g id="Group_129" data-name="Group 129" transform="matrix(0.875, 0.485, -0.485, 0.875, 501.842, 10498.063)" opacity="0.098">
        <g id="Group_15" data-name="Group 15" transform="translate(0 0)" clip-path="url(#clip-path-3)">
          <path id="Path_10" data-name="Path 10" d="M1870.347,36.308c.387,36.373-.237,72.79-3.376,109.046-.759,8.781-1.693,17.541-2.73,26.291a49.653,49.653,0,0,1-.7,5.292c-.738,4.958-1.5,9.911-2.343,14.852a520.856,520.856,0,0,1-11.756,52.828q-3.5,12.49-7.724,24.765-2.111,6.112-4.411,12.16c-.875,2.3-1.787,4.585-2.7,6.873-.629,1.582-2.186,5.093-.634,1.541a343.727,343.727,0,0,1-25.164,47.3c-10.53,16.484-16.472,24.1-30.218,38.811a377.009,377.009,0,0,1-37.884,35.6c-5.669,4.6-2.684,2.07-1.4,1.11q-2.216,1.658-4.457,3.277-5.22,3.78-10.58,7.367-11.485,7.672-23.555,14.4-11.257,6.287-22.941,11.746c-1.327.619-11.091,4.958-6.51,3.023-4.525,1.911-9.127,3.661-13.739,5.357a377.6,377.6,0,0,1-51.4,14.815c-8.433,1.8-16.931,3.342-25.473,4.549-4.3.607-.3.01.479-.082-2.45.285-4.9.564-7.354.808q-7.36.74-14.747,1.2a383.643,383.643,0,0,1-51.742-.283q-6.45-.472-12.883-1.171c-.829-.089-8.409-.994-4.348-.467,3.625.469-2.382-.363-2.5-.38-9.594-1.519-19.183-3.156-28.685-5.168a413.4,413.4,0,0,1-55.053-15.843c-17.432-6.312-28.762-11.345-47.074-20.544-67.94-34.134-128.727-80.33-191.207-123.208C1099.309,266.719,1027.923,229.1,952.1,202.319c-138.014-48.75-312.507-63.5-437.295,26.982-107.74,78.124-162.367,211.311-136.193,342.449C393.682,647.239,435.8,717.4,498.929,761.986c53.348,37.679,133.061,50.688,186.184,5.836,34.192-28.869,43.028-80.734,27.362-121.557-14.012-36.518-41.178-65.321-74.482-85.365-72.68-43.739-167.083-42.187-233.863,11.6-39.72,32-63.728,80.961-75.713,129.678C308.433,783.4,312,870.536,297.516,950.622a518.483,518.483,0,0,1-14.32,59.123q-3.465,11.351-7.454,22.535-1.937,5.412-4.007,10.769-.875,2.264-1.773,4.52c.056-.138-3.659,8.776-1.828,4.515,1.625-3.79-.465,1.006-.675,1.458-.878,1.884-1.7,3.792-2.573,5.678q-2.26,4.879-4.656,9.693-5.006,10.048-10.624,19.778a335.961,335.961,0,0,1-22.264,33.461c5.364-7.132-1.923,2.223-3.062,3.582q-2.677,3.192-5.444,6.307-6.875,7.745-14.281,14.992-6.889,6.747-14.2,13.04c-2.445,2.1-4.963,4.109-7.423,6.191-1.272,1.079-5.41,4.206.808-.534q-2.213,1.687-4.445,3.342c-22.522,16.629-47.137,30.259-72.668,41.677-1.463.653-10.487,4.505-6.936,3.035,3.5-1.449-6.046,2.4-7.226,2.866q-9.667,3.8-19.461,7.255c-15.309,5.425-30.813,10.261-46.419,14.755-18.825,5.42-30.571,25.577-25.338,44.622,5.164,18.784,25.73,30.779,44.624,25.338,56.966-16.4,114.367-37.812,163.24-72.013,46.6-32.607,84.77-75.082,111.017-125.67,34.963-67.382,49.935-141.088,57.447-216.073,7.272-72.613,8.515-141.946,32.782-210.922-2.314,6.583-.646,1.461.982-2.058q1.586-3.428,3.287-6.8c2.721-5.393,5.666-10.677,8.859-15.809,2.629-4.223,5.758-8.131,8.38-12.339,2.474-3.973-4.74,5.471-1.6,2.058.738-.8,1.357-1.727,2.077-2.549,1.9-2.16,3.734-4.365,5.688-6.474q4.621-4.991,9.657-9.574c1.763-1.6,3.581-3.139,5.4-4.687.764-.653,1.6-1.236,2.351-1.9,3.112-2.742-7.652,5.267-1.771,1.451a238.964,238.964,0,0,1,23.348-13.749c6.967-3.48-1.64.878-1.736.614-.029-.087,5.388-2.08,6.14-2.348q6.141-2.2,12.457-3.855c4.182-1.1,8.394-1.942,12.636-2.757,1.55-.3,8.315-1.25,1.543-.327-7.081.965,1.666-.1,3.388-.244a170.365,170.365,0,0,1,25.553-.155c2.119.145,4.23.365,6.346.547,6.394.547.194,1.144-2.433-.4,3.069,1.8,9.833,1.671,13.359,2.45a188.362,188.362,0,0,1,24.114,7.057c1.95.713,3.865,1.519,5.812,2.237,5.69,2.1-7.562-3.579-2.152-.88,3.93,1.961,7.928,3.729,11.8,5.811A206.348,206.348,0,0,1,613.5,631.544c6.23,4.314-2.252-1.942-1.311-1.1,1.439,1.3,3.025,2.45,4.5,3.712q4.36,3.736,8.428,7.8c2.656,2.66,5.132,5.458,7.623,8.271.825.931,1.928,3.122,3,3.676-5.163-2.663-4.767-6.82-2.832-3.589.53.885,1.234,1.676,1.8,2.542,1.959,3.011,3.925,5.988,5.674,9.132.735,1.325,1.4,2.684,2.124,4.017,3.173,5.845.012,2.786-.547-1.843.747,6.206,4.143,13.594,5.661,19.824,1.25,5.129-.575-10.38-.5-3.086.017,1.466.2,2.941.242,4.411.09,3.129-1.231,8.242-.447,11.139-.624-2.3,1.84-9.787.416-3.649-.406,1.751-.713,3.521-1.154,5.267-.883,3.507-3.391,7.826-3.688,11.328.14-1.659,4.651-6.772,1.594-4.317-.871.7-1.84,2.885-2.435,3.862-3.487,5.722-.721.694.283-.346-.994,1.03-1.875,2.174-2.934,3.142-2.276,2.08-8.232,6.307-2.271,2.476-3.122,2.007-6.264,3.8-9.487,5.628-5.686,3.231,4.818-1.037-1.56.539-3.154.779-6.283,1.746-9.442,2.544-1.369.343-2.776.518-4.157.8,1.284-.259,7.933-.576,1.149-.247-3.872.186-7.7.421-11.589.346-2.948-.058-5.872-.351-8.813-.489-1.862-.087-6.786-1.272.788.2-1.468-.285-2.958-.455-4.421-.772a187.729,187.729,0,0,1-20.358-5.347c-2.493-.839-10.443-4.024-3.932-1.192q-4.763-2.071-9.374-4.467a159.2,159.2,0,0,1-17.251-10.508,116.094,116.094,0,0,1-16.561-13.1,231.976,231.976,0,0,1-19.057-19.461c-18.98-21.763-36.428-54.963-45.4-82.838a308.072,308.072,0,0,1-10.68-44.537c-.259-1.589-.493-3.183-.725-4.776.082.564.518,5.945.271,1.691-.213-3.705-.788-7.413-1.074-11.12q-.853-11.05-.873-22.143-.018-10.988.783-21.954c.264-3.635.627-7.258,1-10.88.157-1.55.356-3.1.544-4.643-.4,3.3-.65,4.256.019.409a332.519,332.519,0,0,1,9.858-42.143q3.21-10.3,7.151-20.344c.943-2.406,3.683-8.465,1.071-2.7,1.7-3.739,3.378-7.475,5.183-11.161A304.551,304.551,0,0,1,491.4,354.316c2.02-2.974,4.116-5.893,6.218-8.813.9-1.25,1.833-2.479,2.757-3.712-.31.411-3.538,4.45-.943,1.248,4.873-6.008,9.846-11.9,15.11-17.575a348.626,348.626,0,0,1,31.8-29.674c5.238-4.392-3.009,2,2.561-1.988,2.982-2.133,5.93-4.3,8.953-6.38q9.769-6.711,20.046-12.634,8.982-5.177,18.3-9.727c3.369-1.645,6.784-3.187,10.194-4.75.4-.184,5.332-2.254,1.608-.711-4.126,1.71,4.866-1.857,4.694-1.792a308.028,308.028,0,0,1,42.656-12.781c19.362-4.31,30.269-5.644,49.186-7.066,77.3-5.812,146.788,6.505,220.441,31.6,68.886,23.471,135.161,58.41,197.425,100.8,61.055,41.565,120.069,86.683,185.5,121.356,66.946,35.473,139.879,58.388,215.993,60.632a417.241,417.241,0,0,0,208.59-49.224c64.011-34.455,118.993-88.889,152.933-153.274,34.554-65.556,49.07-138.715,54.719-212.034,2.6-33.771,3.12-67.655,2.759-101.511-.2-18.968-16.542-37.161-36.276-36.276-19.483.873-36.491,15.945-36.276,36.276" transform="translate(-0.001 0.001)" fill="#3cb4be"/>
        </g>
      </g>
    </g>
  </g>
</svg>
