<svg id="Group_525" data-name="Group 525" xmlns="http://www.w3.org/2000/svg" xmlns:xlink="http://www.w3.org/1999/xlink" width="1974.709" height="306.28" viewBox="0 0 1974.709 306.28">
  <defs>
    <clipPath id="clip-path">
      <rect id="Rectangle_497" data-name="Rectangle 497" width="1974.709" height="306.28" fill="#f37137"/>
    </clipPath>
  </defs>
  <g id="Group_493" data-name="Group 493" clip-path="url(#clip-path)">
    <path id="Path_169" data-name="Path 169" d="M201.866,163.961h-.626V155.8a1.525,1.525,0,0,0-1.525-1.525H186.593a1.525,1.525,0,0,0-1.525,1.525v20.83a1.525,1.525,0,0,0,1.525,1.525h3.368V363.4H1.525a1.525,1.525,0,1,0,0,3.05H191.486a1.525,1.525,0,0,0,1.525-1.525V176.635a1.525,1.525,0,0,0-1.525-1.525h-3.368V157.33H198.19v8.157a1.525,1.525,0,0,0,1.525,1.525h2.151a1.525,1.525,0,0,0,0-3.05" transform="translate(0 -60.173)" fill="#f37137"/>
    <path id="Path_170" data-name="Path 170" d="M509.568,357.268h-.376a7.1,7.1,0,0,0-7.093,7.093v13.876a1.525,1.525,0,0,0,1.525,1.525h11.512a1.525,1.525,0,0,0,1.525-1.525V364.361a7.1,7.1,0,0,0-7.093-7.093" transform="translate(-195.832 -139.344)" fill="#f37137"/>
    <path id="Path_171" data-name="Path 171" d="M509.568,232.888h-.376a7.1,7.1,0,0,0-7.093,7.093v13.876a1.525,1.525,0,0,0,1.525,1.525h11.512a1.525,1.525,0,0,0,1.525-1.525V239.981a7.1,7.1,0,0,0-7.093-7.093" transform="translate(-195.832 -90.833)" fill="#f37137"/>
    <path id="Path_172" data-name="Path 172" d="M522.545,165.486V157.33H532.6v17.78h-3.368a1.525,1.525,0,0,0-1.525,1.525v45.952a1.525,1.525,0,0,0,3.05,0V178.16h3.368a1.525,1.525,0,0,0,1.525-1.525V155.8a1.525,1.525,0,0,0-1.525-1.525h-13.1a1.525,1.525,0,0,0-1.525,1.525v8.157h-5.848V155.8a1.525,1.525,0,0,0-1.525-1.525h-9.66a1.525,1.525,0,0,0-1.525,1.525v8.157H495.1V155.8a1.525,1.525,0,0,0-1.525-1.525H483.91a1.525,1.525,0,0,0-1.525,1.525v8.157h-5.847V155.8a1.525,1.525,0,0,0-1.525-1.525h-9.654a1.524,1.524,0,0,0-1.525,1.525v8.157h-.561a1.525,1.525,0,1,0,0,3.05h2.086a1.525,1.525,0,0,0,1.525-1.525V157.33h6.6v8.157a1.525,1.525,0,0,0,1.525,1.525h8.9a1.525,1.525,0,0,0,1.525-1.525V157.33h6.611v8.157a1.525,1.525,0,0,0,1.525,1.525h8.891a1.525,1.525,0,0,0,1.525-1.525V157.33h6.61v8.157a1.525,1.525,0,0,0,1.525,1.525h8.9a1.525,1.525,0,0,0,1.525-1.525" transform="translate(-180.094 -60.173)" fill="#f37137"/>
    <path id="Path_173" data-name="Path 173" d="M495.167,189.955a1.525,1.525,0,0,0-1.525-1.525H463.273a1.525,1.525,0,1,0,0,3.05h30.369a1.525,1.525,0,0,0,1.525-1.525" transform="translate(-180.094 -73.493)" fill="#f37137"/>
    <path id="Path_174" data-name="Path 174" d="M409.178,59.222H397.351a1.525,1.525,0,0,0-1.525,1.525v8.161h-5.837V60.747a1.525,1.525,0,0,0-1.525-1.525H376.636a1.525,1.525,0,0,0-1.525,1.525v8.161h-5.844V60.747a1.525,1.525,0,0,0-1.525-1.525H363.51V42.564l26.2-6.9a1.524,1.524,0,0,0,0-2.946l-26.2-6.893V24.143a1.525,1.525,0,1,0-3.05,0v35.08h-4.544a1.525,1.525,0,0,0-1.525,1.525v8.161h-5.837V60.747a1.526,1.526,0,0,0-1.525-1.525H335.207a1.522,1.522,0,0,0-1.525,1.525v15.64a1.522,1.522,0,0,0,1.525,1.525h1.379V313.575a1.525,1.525,0,0,0,1.525,1.525h68.158a1.525,1.525,0,0,0,1.525-1.525V77.912h1.385a1.525,1.525,0,0,0,1.525-1.525V60.747a1.525,1.525,0,0,0-1.525-1.525M363.51,28.98,383.334,34.2,363.51,39.4Zm44.144,45.882h-1.385a1.525,1.525,0,0,0-1.525,1.525V312.05H385.457V281.417a12.9,12.9,0,0,0-12.883-12.889h-.769a12.9,12.9,0,0,0-12.883,12.889V312.05H339.635V77.912h9.326a1.525,1.525,0,1,0,0-3.05h-12.23V62.272H345.5v8.161a1.525,1.525,0,0,0,1.525,1.525h8.887a1.525,1.525,0,0,0,1.525-1.525V62.272h8.777v8.161a1.525,1.525,0,0,0,1.525,1.525h8.893a1.525,1.525,0,0,0,1.525-1.525V62.272h8.778v8.161a1.525,1.525,0,0,0,1.525,1.525h8.887a1.526,1.526,0,0,0,1.525-1.525V62.272h8.777Z" transform="translate(-130.145 -8.822)" fill="#f37137"/>
    <path id="Path_175" data-name="Path 175" d="M402.406,38.263l-19.824,5.209V33.048Z" transform="translate(-149.217 -12.89)" fill="#f37137"/>
    <path id="Path_176" data-name="Path 176" d="M397.109,352.6h-7.053a1.525,1.525,0,0,0-1.525,1.525v16.234a1.525,1.525,0,0,0,1.525,1.525h7.053a1.525,1.525,0,0,0,1.525-1.525V354.128a1.525,1.525,0,0,0-1.525-1.525" transform="translate(-151.538 -137.525)" fill="#f37137"/>
    <path id="Path_177" data-name="Path 177" d="M397.109,279.438h-7.053a1.525,1.525,0,0,0-1.525,1.525V297.2a1.525,1.525,0,0,0,1.525,1.525h7.053a1.525,1.525,0,0,0,1.525-1.525V280.963a1.525,1.525,0,0,0-1.525-1.525" transform="translate(-151.538 -108.988)" fill="#f37137"/>
    <path id="Path_178" data-name="Path 178" d="M397.109,206.272h-7.053a1.525,1.525,0,0,0-1.525,1.525v16.234a1.525,1.525,0,0,0,1.525,1.525h7.053a1.525,1.525,0,0,0,1.525-1.525V207.8a1.525,1.525,0,0,0-1.525-1.525" transform="translate(-151.538 -80.452)" fill="#f37137"/>
    <path id="Path_179" data-name="Path 179" d="M397.109,133.107h-7.053a1.525,1.525,0,0,0-1.525,1.525v16.234a1.525,1.525,0,0,0,1.525,1.525h7.053a1.525,1.525,0,0,0,1.525-1.525V134.632a1.525,1.525,0,0,0-1.525-1.525" transform="translate(-151.538 -51.915)" fill="#f37137"/>
    <path id="Path_180" data-name="Path 180" d="M363.167,109.8v.015a1.54,1.54,0,0,0,1.54,1.525h.031a1.541,1.541,0,0,0,1.51-1.555v-.015a1.539,1.539,0,0,0-1.554-1.525h0a1.54,1.54,0,0,0-1.525,1.555" transform="translate(-141.645 -42.218)" fill="#f37137"/>
    <path id="Path_181" data-name="Path 181" d="M522.547,189.944v-.015a1.54,1.54,0,0,0-3.08.031v.015a1.54,1.54,0,0,0,1.54,1.525h.03a1.54,1.54,0,0,0,1.51-1.555" transform="translate(-202.606 -73.483)" fill="#f37137"/>
    <path id="Path_182" data-name="Path 182" d="M1832.743,281.649h.03a1.54,1.54,0,0,0,1.51-1.555v-.014a1.54,1.54,0,1,0-3.08.031v.015a1.54,1.54,0,0,0,1.54,1.525" transform="translate(-714.218 -108.643)" fill="#f37137"/>
    <path id="Path_183" data-name="Path 183" d="M1446.209,391.448h-66.025v-24.9a1.522,1.522,0,0,0-.16-.68l-2.743-5.5V308.317a4.426,4.426,0,0,0,0-8.315V282.365a19.178,19.178,0,0,1,17.631-19.089v11.612a9.6,9.6,0,0,0-8.072,9.463,1.525,1.525,0,0,0,1.525,1.525h16.143a1.525,1.525,0,0,0,1.525-1.525,9.6,9.6,0,0,0-8.071-9.463v-13.38a1.525,1.525,0,0,0-1.525-1.525,19.182,19.182,0,0,1-19.052-17.165,2.335,2.335,0,0,1,.586-1.008,2.411,2.411,0,0,1,3.327,0,2.353,2.353,0,0,1,0,3.327,1.525,1.525,0,0,0,2.157,2.156,5.4,5.4,0,0,0-6.173-8.679v-10.9a1.525,1.525,0,0,0-3.05,0v10.9a5.4,5.4,0,0,0-6.172,8.68,1.525,1.525,0,0,0,2.156-2.156,2.354,2.354,0,0,1,0-3.327,2.412,2.412,0,0,1,3.328,0,2.333,2.333,0,0,1,.585,1.008,19.183,19.183,0,0,1-19.052,17.165,1.525,1.525,0,0,0-1.525,1.525v13.38a9.6,9.6,0,0,0-8.071,9.463,1.525,1.525,0,0,0,1.525,1.525h16.143a1.525,1.525,0,0,0,1.525-1.525,9.6,9.6,0,0,0-8.072-9.463V263.275a19.177,19.177,0,0,1,17.63,19.089V300a4.426,4.426,0,0,0,0,8.315v52.042l-2.744,5.507a1.526,1.526,0,0,0-.16.68v24.9H1318.92V303.163h2.594a1.525,1.525,0,0,0,1.4-2.121l-22.041-51.967a4.841,4.841,0,0,0-.485-9.013v-5.618a1.525,1.525,0,0,0-3.05,0v5.628a4.839,4.839,0,0,0-.481,8.992l-22.046,51.978a1.525,1.525,0,0,0,1.4,2.121h2.594v88.284h-67.327a1.525,1.525,0,1,0,0,3.05h68.852a1.525,1.525,0,0,0,1.525-1.525V301.637a1.525,1.525,0,0,0-1.525-1.525h-1.816l20.345-47.967,20.344,47.967h-30.588a1.525,1.525,0,1,0,0,3.05h27.248v89.812a1.525,1.525,0,0,0,1.525,1.525h128.815a1.525,1.525,0,1,0,0-3.05M1362.926,261.6a22.32,22.32,0,0,0,12.831-12.692,22.322,22.322,0,0,0,12.831,12.692,22.318,22.318,0,0,0-12.831,12.7,22.316,22.316,0,0,0-12.831-12.7" transform="translate(-471.916 -88.22)" fill="#f37137"/>
    <path id="Path_184" data-name="Path 184" d="M2077.035,317.73v.016a1.541,1.541,0,0,0,1.54,1.525h.031a1.54,1.54,0,0,0,1.51-1.555V317.7a1.541,1.541,0,0,0-1.556-1.525h0a1.54,1.54,0,0,0-1.524,1.555" transform="translate(-810.099 -123.317)" fill="#f37137"/>
    <path id="Path_185" data-name="Path 185" d="M1776.082,222.768c-12.016-5.168-39.622-22.87-43.386-41.844a78.2,78.2,0,0,1-1.269-8.392c-.547-4.824-1.063-9.379-3.279-14.093a38.82,38.82,0,0,0-33.43-23.2c-20.062-1.31-38.592,14.525-40.476,34.536-.11.906-.207,1.86-.306,2.839a65.981,65.981,0,0,1-.986,7.156c0,.024-.01.049-.014.075-3.376,20.736-34.959,39.454-43.594,42.9a1.524,1.524,0,0,0-.959,1.416v133.3a1.525,1.525,0,0,0,1.525,1.525h165.57a1.525,1.525,0,0,0,1.525-1.525v-133.3a1.525,1.525,0,0,0-.922-1.4m-164.648,133.18V225.173c8.312-3.746,40.794-22.191,44.508-44.8a68.55,68.55,0,0,0,1.03-7.453c.1-.958.191-1.891.3-2.819,1.739-18.452,18.805-33.021,37.281-31.817a35.751,35.751,0,0,1,30.81,21.4c2.025,4.311,2.514,8.624,3.031,13.19a80.589,80.589,0,0,0,1.315,8.677c3.486,17.575,25.013,33.5,39.173,41.092H1751.2a1.525,1.525,0,0,0,0,3.05h22.752V355.947Z" transform="translate(-627.313 -52.719)" fill="#f37137"/>
    <path id="Path_186" data-name="Path 186" d="M1710.655,181.163h42.666a1.525,1.525,0,0,0,1.525-1.525,22.858,22.858,0,1,0-45.716,0,1.525,1.525,0,0,0,1.525,1.525" transform="translate(-666.607 -61.148)" fill="#f37137"/>
    <path id="Path_187" data-name="Path 187" d="M1668.694,374.251h-22.569a1.525,1.525,0,0,0-1.525,1.525v52.87a1.525,1.525,0,0,0,1.525,1.525h22.569a1.525,1.525,0,0,0,1.525-1.525v-52.87a1.525,1.525,0,0,0-1.525-1.525" transform="translate(-641.438 -145.968)" fill="#f37137"/>
    <path id="Path_188" data-name="Path 188" d="M1722.7,374.251h-22.569a1.525,1.525,0,0,0-1.525,1.525v52.87a1.525,1.525,0,0,0,1.525,1.525H1722.7a1.525,1.525,0,0,0,1.525-1.525v-52.87a1.525,1.525,0,0,0-1.525-1.525" transform="translate(-662.501 -145.968)" fill="#f37137"/>
    <path id="Path_189" data-name="Path 189" d="M1776.7,374.251H1754.13a1.525,1.525,0,0,0-1.525,1.525v52.87a1.525,1.525,0,0,0,1.525,1.525H1776.7a1.525,1.525,0,0,0,1.525-1.525v-52.87a1.525,1.525,0,0,0-1.525-1.525" transform="translate(-683.563 -145.968)" fill="#f37137"/>
    <path id="Path_190" data-name="Path 190" d="M1830.7,374.251h-22.569a1.525,1.525,0,0,0-1.525,1.525v52.87a1.525,1.525,0,0,0,1.525,1.525H1830.7a1.525,1.525,0,0,0,1.525-1.525v-52.87a1.525,1.525,0,0,0-1.525-1.525" transform="translate(-704.626 -145.968)" fill="#f37137"/>
    <path id="Path_191" data-name="Path 191" d="M1668.694,297.37h-22.569a1.525,1.525,0,0,0-1.525,1.525v38.628a1.525,1.525,0,0,0,1.525,1.525h22.569a1.525,1.525,0,0,0,1.525-1.525V298.895a1.525,1.525,0,0,0-1.525-1.525" transform="translate(-641.438 -115.982)" fill="#f37137"/>
    <path id="Path_192" data-name="Path 192" d="M1722.7,297.37h-22.569a1.525,1.525,0,0,0-1.525,1.525v38.628a1.525,1.525,0,0,0,1.525,1.525H1722.7a1.525,1.525,0,0,0,1.525-1.525V298.895a1.525,1.525,0,0,0-1.525-1.525" transform="translate(-662.501 -115.982)" fill="#f37137"/>
    <path id="Path_193" data-name="Path 193" d="M1776.7,297.37H1754.13a1.525,1.525,0,0,0-1.525,1.525v38.628a1.525,1.525,0,0,0,1.525,1.525H1776.7a1.525,1.525,0,0,0,1.525-1.525V298.895a1.525,1.525,0,0,0-1.525-1.525" transform="translate(-683.563 -115.982)" fill="#f37137"/>
    <path id="Path_194" data-name="Path 194" d="M1830.7,297.37h-22.569a1.525,1.525,0,0,0-1.525,1.525v38.628a1.525,1.525,0,0,0,1.525,1.525H1830.7a1.525,1.525,0,0,0,1.525-1.525V298.895a1.525,1.525,0,0,0-1.525-1.525" transform="translate(-704.626 -115.982)" fill="#f37137"/>
    <path id="Path_195" data-name="Path 195" d="M1966.2,209.335a115.275,115.275,0,0,0,24.666,15.825v13.559a1.525,1.525,0,0,0,3.05,0V225.148a5.426,5.426,0,0,0-.923-2.381c-12.016-5.168-39.622-22.87-43.385-41.844a78.241,78.241,0,0,1-1.269-8.391c-.547-4.823-1.063-9.38-3.279-14.093a38.82,38.82,0,0,0-33.429-23.2c-20.063-1.309-38.591,14.526-40.477,34.536-.11.907-.206,1.86-.305,2.84a65.991,65.991,0,0,1-.986,7.156c-.005.024-.01.049-.014.075-1.161,7.134-5.645,14.6-13.326,22.179a1.525,1.525,0,1,0,2.142,2.17c8.138-8.032,12.911-16.047,14.188-23.821a68.415,68.415,0,0,0,1.03-7.452c.1-.959.192-1.892.3-2.819,1.739-18.452,18.807-33.021,37.281-31.817a35.749,35.749,0,0,1,30.809,21.4c2.026,4.31,2.514,8.623,3.032,13.191a80.581,80.581,0,0,0,1.315,8.676c2.233,11.256,11.879,21.322,19.577,27.784" transform="translate(-723.918 -52.719)" fill="#f37137"/>
    <path id="Path_196" data-name="Path 196" d="M1950.557,181.163a1.525,1.525,0,0,0,1.525-1.525,22.857,22.857,0,1,0-45.715,0,1.525,1.525,0,0,0,1.525,1.525Z" transform="translate(-743.534 -61.148)" fill="#f37137"/>
    <path id="Path_197" data-name="Path 197" d="M1919.932,297.37h-22.569a1.525,1.525,0,0,0-1.525,1.525v19.953a1.525,1.525,0,0,0,1.525,1.525h22.569a1.525,1.525,0,0,0,1.525-1.525V298.895a1.525,1.525,0,0,0-1.525-1.525" transform="translate(-739.428 -115.982)" fill="#f37137"/>
    <path id="Path_198" data-name="Path 198" d="M1973.935,297.37h-22.569a1.525,1.525,0,0,0-1.525,1.525v19.953a1.525,1.525,0,0,0,1.525,1.525h22.569a1.525,1.525,0,0,0,1.525-1.525V298.895a1.525,1.525,0,0,0-1.525-1.525" transform="translate(-760.49 -115.982)" fill="#f37137"/>
    <path id="Path_199" data-name="Path 199" d="M2027.937,297.37h-22.569a1.525,1.525,0,0,0-1.525,1.525v19.953a1.525,1.525,0,0,0,1.525,1.525h22.569a1.525,1.525,0,0,0,1.525-1.525V298.895a1.525,1.525,0,0,0-1.525-1.525" transform="translate(-781.553 -115.982)" fill="#f37137"/>
    <path id="Path_200" data-name="Path 200" d="M1919.932,428.215h-22.569a1.525,1.525,0,0,0-1.525,1.525v19.953a1.525,1.525,0,0,0,1.525,1.525h22.569a1.525,1.525,0,0,0,1.525-1.525V429.74a1.525,1.525,0,0,0-1.525-1.525" transform="translate(-739.428 -167.015)" fill="#f37137"/>
    <path id="Path_201" data-name="Path 201" d="M1973.935,428.215h-22.569a1.525,1.525,0,0,0-1.525,1.525v19.953a1.525,1.525,0,0,0,1.525,1.525h22.569a1.525,1.525,0,0,0,1.525-1.525V429.74a1.525,1.525,0,0,0-1.525-1.525" transform="translate(-760.49 -167.015)" fill="#f37137"/>
    <path id="Path_202" data-name="Path 202" d="M2027.937,428.215h-22.569a1.525,1.525,0,0,0-1.525,1.525v19.953a1.525,1.525,0,0,0,1.525,1.525h22.569a1.525,1.525,0,0,0,1.525-1.525V429.74a1.525,1.525,0,0,0-1.525-1.525" transform="translate(-781.553 -167.015)" fill="#f37137"/>
    <path id="Path_203" data-name="Path 203" d="M2592.969,312.333a1.525,1.525,0,0,0-.279-2.139l-19.074-14.675a1.523,1.523,0,0,0-1.859,0l-19.931,15.335a1.525,1.525,0,1,0,1.859,2.417l19-14.62,18.144,13.96a1.526,1.526,0,0,0,2.139-.279" transform="translate(-995.049 -115.137)" fill="#f37137"/>
    <path id="Path_204" data-name="Path 204" d="M2566.69,331.941a11.6,11.6,0,1,0,11.6-11.6,11.611,11.611,0,0,0-11.6,11.6" transform="translate(-1001.078 -124.942)" fill="#f37137"/>
    <path id="Path_205" data-name="Path 205" d="M2388,277.572a1.517,1.517,0,0,0,.977-.354l49.262-41.112,1.558,1.558,0,0,13.1,13.1a1.527,1.527,0,0,0,1.079.447h108.049a1.523,1.523,0,0,0,1.078-.447l14.666-14.666,20.67,17.025a1.525,1.525,0,0,0,1.939-2.354L2580.5,234.4a4.838,4.838,0,0,0-1.305-8.54l.03-5.61a1.527,1.527,0,0,0-1.519-1.533h-.007a1.524,1.524,0,0,0-1.525,1.517l-.03,5.637a4.84,4.84,0,0,0-1.113,8.643l-.545.545H2441.5l-.545-.545a4.84,4.84,0,0,0-1.141-8.654v-5.618a1.525,1.525,0,0,0-3.05,0v5.628a4.837,4.837,0,0,0-1.264,8.539l-48.486,40.463a1.525,1.525,0,0,0,.978,2.7m63.072-32.946c0-.013,0-.025,0-.038v-6.476h8.64v10.051H2454.6Zm90.475,3.537H2532.9V238.112h8.641Zm3.05-10.051h8.64v10.051h-8.64Zm-14.741,10.051h-8.64V238.112h8.64Zm-11.69,0h-8.64V238.112h8.64Zm-11.69,0h-8.64V238.112h8.64Zm-11.689,0h-8.64V238.112h8.64Zm-11.69,0h-8.641V238.112h8.641Zm-11.691,0h-8.64V238.112h8.64Zm89.988,0h-5.108V238.112h8.64v6.447c0,.022.005.043.007.065Zm6.582-6.582v-3.468h3.468Zm-119.951-3.468v3.468l-3.469-3.468Z" transform="translate(-930.788 -85.307)" fill="#f37137"/>
    <path id="Path_206" data-name="Path 206" d="M2768.143,302.576a1.525,1.525,0,0,0,1.956-2.34L2750.8,284.1a1.525,1.525,0,0,0-1.956,2.34Z" transform="translate(-1071.91 -110.667)" fill="#f37137"/>
    <path id="Path_207" data-name="Path 207" d="M2602.63,390.088a1.525,1.525,0,0,0,1.525-1.525v-5.119h4.636a1.525,1.525,0,0,0,0-3.05H2475.32a1.525,1.525,0,1,0,0,3.05h5.771v5.119a1.525,1.525,0,1,0,3.05,0v-5.119h8.951v5.119a1.525,1.525,0,1,0,3.05,0v-5.119h8.952v5.119a1.525,1.525,0,1,0,3.05,0v-5.119h8.951v5.119a1.525,1.525,0,1,0,3.05,0v-5.119h8.952v5.119a1.525,1.525,0,1,0,3.05,0v-5.119h8.951v5.119a1.525,1.525,0,0,0,3.05,0v-5.119h8.952v5.119a1.525,1.525,0,0,0,3.05,0v-5.119h8.951v5.119a1.525,1.525,0,1,0,3.05,0v-5.119h8.951v5.119a1.525,1.525,0,0,0,3.05,0v-5.119h8.951v5.119a1.525,1.525,0,1,0,3.05,0v-5.119h8.952v5.119a1.525,1.525,0,0,0,1.525,1.525" transform="translate(-964.846 -148.364)" fill="#f37137"/>
    <path id="Path_208" data-name="Path 208" d="M2604.854,407.964H2493.218a1.525,1.525,0,0,0,0,3.05h2.169v8.4a1.525,1.525,0,0,0,1.525,1.525h19.163a1.525,1.525,0,0,0,1.525-1.525v-8.4h7.512v8.4a1.525,1.525,0,0,0,1.525,1.525h19.352a1.525,1.525,0,0,0,1.525-1.525v-8.4h3.044v8.4a1.525,1.525,0,0,0,1.525,1.525h19.352a1.525,1.525,0,0,0,1.525-1.525v-8.4h7.511v8.4a1.525,1.525,0,0,0,1.525,1.525h19.164a1.525,1.525,0,0,0,1.525-1.525v-8.4h2.169a1.525,1.525,0,0,0,0-3.05" transform="translate(-971.827 -159.117)" fill="#f37137"/>
    <path id="Path_209" data-name="Path 209" d="M2516.076,434.79h-19.163a1.525,1.525,0,0,0-1.525,1.525v25.778h-2.169a1.525,1.525,0,0,0,0,3.05h26.553a1.525,1.525,0,0,0,0-3.05h-2.17V436.315a1.524,1.524,0,0,0-1.525-1.525" transform="translate(-971.827 -169.58)" fill="#f37137"/>
    <path id="Path_210" data-name="Path 210" d="M2655.565,434.79H2636.4a1.525,1.525,0,0,0-1.525,1.525v25.778h-2.17a1.525,1.525,0,0,0,0,3.05h26.553a1.525,1.525,0,0,0,0-3.05h-2.169V436.315a1.525,1.525,0,0,0-1.525-1.525" transform="translate(-1026.232 -169.58)" fill="#f37137"/>
    <path id="Path_211" data-name="Path 211" d="M2375.451,427.068H2325.3a1.525,1.525,0,0,0,0,3.05h1.522v7.9a1.525,1.525,0,0,0,1.525,1.525h10.979a1.525,1.525,0,0,0,1.525-1.525v-7.9h2.522v7.9a1.525,1.525,0,0,0,1.525,1.525h10.979a1.525,1.525,0,0,0,1.525-1.525v-7.9h2.522v7.9a1.525,1.525,0,0,0,1.525,1.525h10.979a1.525,1.525,0,0,0,1.525-1.525v-7.9h1.494a1.525,1.525,0,0,0,0-3.05" transform="translate(-906.335 -166.568)" fill="#f37137"/>
    <path id="Path_212" data-name="Path 212" d="M2375.451,468.9h-1.494V453.773a1.525,1.525,0,0,0-1.525-1.525h-10.979a1.525,1.525,0,0,0-1.525,1.525V468.9h-2.522V453.773a1.525,1.525,0,0,0-1.525-1.525H2344.9a1.525,1.525,0,0,0-1.525,1.525V468.9h-2.522V453.773a1.525,1.525,0,0,0-1.525-1.525h-10.979a1.525,1.525,0,0,0-1.525,1.525V468.9H2325.3a1.525,1.525,0,0,0,0,3.05h50.149a1.525,1.525,0,0,0,0-3.05" transform="translate(-906.335 -176.389)" fill="#f37137"/>
    <path id="Path_213" data-name="Path 213" d="M2783.274,424.216H2588.4V361.253c0-.035-.008-.068-.01-.1,0-.053-.007-.107-.016-.161a1.454,1.454,0,0,0-.035-.144c-.013-.046-.026-.093-.043-.139a1.5,1.5,0,0,0-.063-.137c-.022-.043-.043-.087-.069-.129s-.059-.082-.09-.122-.057-.075-.09-.11a1.638,1.638,0,0,0-.126-.116c-.024-.02-.044-.044-.07-.063l-66.419-49.526a1.521,1.521,0,0,0-1.823,0l-66.42,49.526c-.026.02-.046.043-.071.063-.043.038-.086.074-.126.116s-.061.073-.09.11-.062.079-.09.122-.048.085-.07.129-.045.089-.063.136-.03.093-.043.14a1.388,1.388,0,0,0-.035.144,1.513,1.513,0,0,0-.016.161c0,.034-.01.067-.01.1v62.963h-41.287V387.722a1.525,1.525,0,0,0-1.525-1.525h-19.352a1.525,1.525,0,0,0-1.525,1.525v36.493h-3.044V387.722a1.525,1.525,0,0,0-1.525-1.525H2364.9a1.525,1.525,0,0,0-1.525,1.525v36.493h-41.287V361.253c0-.035-.008-.068-.01-.1a1.581,1.581,0,0,0-.017-.161,1.453,1.453,0,0,0-.035-.144c-.013-.046-.026-.093-.043-.139s-.041-.092-.063-.137-.043-.087-.07-.129a1.429,1.429,0,0,0-.09-.122c-.029-.037-.057-.075-.09-.11a1.638,1.638,0,0,0-.126-.116c-.024-.02-.044-.044-.07-.063l-66.419-49.526a1.521,1.521,0,0,0-1.823,0l-32.973,24.586a1.525,1.525,0,0,0,1.823,2.445l13.573-10.12a1.559,1.559,0,0,0,.356.045h14.909a18.073,18.073,0,0,1,1.594,5.8,2.136,2.136,0,0,1-.527.893,2.214,2.214,0,0,1-3.053,0,2.159,2.159,0,0,1,0-3.055,1.525,1.525,0,0,0-2.156-2.156,5.206,5.206,0,0,0,5.843,8.42v4.644a1.525,1.525,0,0,0,3.05,0v-4.644a5.207,5.207,0,0,0,5.841-8.421,1.525,1.525,0,0,0-2.155,2.157,2.16,2.16,0,0,1,0,3.054,2.214,2.214,0,0,1-3.054,0,2.141,2.141,0,0,1-.528-.9,18.083,18.083,0,0,1,1.594-5.8h14.909a1.558,1.558,0,0,0,.357-.045l46.406,34.6v4.5H2189.25v-3.735H2245.1a1.525,1.525,0,0,0,0-3.05h-57.379a1.525,1.525,0,0,0-1.525,1.525v62.963h-27.038V395.728a1.525,1.525,0,1,0-3.05,0v28.488H2080.09V323.853a1.525,1.525,0,1,0-3.05,0V425.439a1.523,1.523,0,0,0,1.495,1.826h109.189a1.525,1.525,0,0,0,1.525-1.525V369.563h3.363v5.118a1.525,1.525,0,0,0,3.05,0v-5.118h8.952v5.118a1.525,1.525,0,0,0,3.05,0v-5.118h8.951v5.118a1.525,1.525,0,1,0,3.05,0v-5.118h8.951v5.118a1.525,1.525,0,1,0,3.05,0v-5.118h8.951v5.118a1.525,1.525,0,1,0,3.05,0v-5.118h8.952v5.118a1.525,1.525,0,0,0,3.05,0v-5.118h8.951v5.118a1.525,1.525,0,1,0,3.05,0v-5.118h8.952v5.118a1.525,1.525,0,1,0,3.05,0v-5.118h8.951v5.118a1.525,1.525,0,1,0,3.05,0v-5.118h8.952v5.118a1.525,1.525,0,1,0,3.05,0v-5.118h8.951v5.118a1.525,1.525,0,0,0,3.05,0v-5.118h3.363v56.178a1.525,1.525,0,0,0,1.525,1.525h133.471a1.525,1.525,0,0,0,1.525-1.525V369.563h3.363v5.118a1.525,1.525,0,0,0,3.05,0v-5.118h8.951v5.118a1.525,1.525,0,1,0,3.05,0v-5.118h8.952v5.118a1.525,1.525,0,1,0,3.05,0v-5.118h8.951v5.118a1.525,1.525,0,1,0,3.05,0v-5.118h8.952v5.118a1.525,1.525,0,1,0,3.05,0v-5.118h8.951v5.118a1.525,1.525,0,0,0,3.05,0v-5.118h8.951v5.118a1.525,1.525,0,1,0,3.05,0v-5.118h8.951v5.118a1.525,1.525,0,0,0,3.05,0v-5.118h8.952v5.118a1.525,1.525,0,1,0,3.05,0v-5.118h8.951v5.118a1.525,1.525,0,1,0,3.05,0v-5.118h8.952v5.118a1.525,1.525,0,0,0,3.05,0v-5.118h3.362v56.178a1.525,1.525,0,0,0,1.525,1.525h196.4a1.525,1.525,0,0,0,0-3.05m-253.723-103.8,5.365,4h-9.422a18.215,18.215,0,0,1,4.057-4m-9.1-6.783,6.553,4.887a21.121,21.121,0,0,0-5.166,5.9h-2.774a21.132,21.132,0,0,0-5.167-5.9Zm-9.1,6.783a18.18,18.18,0,0,1,4.058,4h-9.422Zm-257.213-6.783,6.553,4.887a21.138,21.138,0,0,0-5.167,5.9h-2.774a21.128,21.128,0,0,0-5.166-5.9Zm-14.461,10.782,5.364-4a18.192,18.192,0,0,1,4.057,4Zm19.5,0a18.18,18.18,0,0,1,4.058-4l5.365,4Zm196.376,42.1v-4.5l46.406-34.6a1.569,1.569,0,0,0,.357.045h14.908a18.057,18.057,0,0,1,1.594,5.8,2.138,2.138,0,0,1-.527.894,2.212,2.212,0,0,1-3.054,0,2.16,2.16,0,0,1,0-3.054,1.525,1.525,0,0,0-2.155-2.157,5.206,5.206,0,0,0,5.842,8.421v4.644a1.525,1.525,0,0,0,3.05,0v-4.644a5.207,5.207,0,0,0,5.843-8.42,1.525,1.525,0,0,0-2.156,2.156,2.161,2.161,0,0,1,0,3.054,2.214,2.214,0,0,1-3.054,0,2.138,2.138,0,0,1-.528-.894,18.068,18.068,0,0,1,1.594-5.8h14.909a1.565,1.565,0,0,0,.357-.045l43.334,32.312h-23.532a1.525,1.525,0,0,0,0,3.05h26.6v3.735Z" transform="translate(-810.09 -120.987)" fill="#f37137"/>
    <path id="Path_214" data-name="Path 214" d="M2796.113,391.395H2720.39a1.525,1.525,0,0,0,0,3.05h75.723a1.525,1.525,0,0,0,0-3.05" transform="translate(-1060.43 -152.655)" fill="#f37137"/>
    <path id="Path_215" data-name="Path 215" d="M2812.044,427.068H2761.9a1.525,1.525,0,0,0,0,3.05h1.522v7.9a1.524,1.524,0,0,0,1.525,1.525h10.979a1.525,1.525,0,0,0,1.525-1.525v-7.9h2.522v7.9a1.524,1.524,0,0,0,1.525,1.525h10.979a1.525,1.525,0,0,0,1.525-1.525v-7.9h2.522v7.9a1.524,1.524,0,0,0,1.525,1.525h10.979a1.525,1.525,0,0,0,1.525-1.525v-7.9h1.494a1.525,1.525,0,1,0,0-3.05" transform="translate(-1076.618 -166.568)" fill="#f37137"/>
    <path id="Path_216" data-name="Path 216" d="M2812.044,468.9h-1.494V453.773a1.525,1.525,0,0,0-1.525-1.525h-10.979a1.524,1.524,0,0,0-1.525,1.525V468.9H2794V453.773a1.525,1.525,0,0,0-1.525-1.525h-10.979a1.524,1.524,0,0,0-1.525,1.525V468.9h-2.522V453.773a1.525,1.525,0,0,0-1.525-1.525h-10.979a1.524,1.524,0,0,0-1.525,1.525V468.9H2761.9a1.525,1.525,0,0,0,0,3.05h50.149a1.525,1.525,0,1,0,0-3.05" transform="translate(-1076.618 -176.389)" fill="#f37137"/>
    <path id="Path_217" data-name="Path 217" d="M1069.69,347.381h-23.876a1.525,1.525,0,0,0,0,3.05h23.876a1.525,1.525,0,0,0,0-3.05" transform="translate(-407.301 -135.488)" fill="#f37137"/>
    <path id="Path_218" data-name="Path 218" d="M1038.55,348.9v-.015a1.541,1.541,0,0,0-1.555-1.525h0a1.541,1.541,0,0,0-1.525,1.555v.016a1.54,1.54,0,0,0,1.54,1.524h.031a1.539,1.539,0,0,0,1.51-1.555" transform="translate(-403.861 -135.478)" fill="#f37137"/>
    <path id="Path_219" data-name="Path 219" d="M960.663,348.91v.015a1.54,1.54,0,0,0,1.54,1.525h.031a1.54,1.54,0,0,0,1.51-1.555v-.015a1.54,1.54,0,1,0-3.08.031" transform="translate(-374.684 -135.478)" fill="#f37137"/>
    <path id="Path_220" data-name="Path 220" d="M1282.786,348.906a1.525,1.525,0,0,0-1.525-1.525h-23.09a1.525,1.525,0,0,0,0,3.05h23.09a1.525,1.525,0,0,0,1.525-1.525" transform="translate(-490.126 -135.488)" fill="#f37137"/>
    <path id="Path_221" data-name="Path 221" d="M1248.5,347.356h0a1.54,1.54,0,0,0-1.525,1.555v.015a1.54,1.54,0,0,0,1.54,1.525h.031a1.541,1.541,0,0,0,1.51-1.555v-.015a1.54,1.54,0,0,0-1.555-1.525" transform="translate(-486.355 -135.478)" fill="#f37137"/>
    <path id="Path_222" data-name="Path 222" d="M1142.768,135.205a9.473,9.473,0,1,0,9.473,9.473,9.484,9.484,0,0,0-9.473-9.473" transform="translate(-442.015 -52.734)" fill="#f37137"/>
    <path id="Path_223" data-name="Path 223" d="M1146.743,182.531V138.824h2.122a1.525,1.525,0,0,0,1.525-1.525v-8.387a1.508,1.508,0,0,0,.354.046h12.714a1.525,1.525,0,1,0,0-3.05h-12.714a1.508,1.508,0,0,0-.354.045V112.595a1.525,1.525,0,0,0-1.525-1.525h-6.319V72.106a1.536,1.536,0,0,0-.075-.473l-18.077-55.4a4.842,4.842,0,0,0-.3-9.093V1.525a1.525,1.525,0,0,0-3.05,0V7.153a4.841,4.841,0,0,0-.429,9.017l-18.1,55.462a1.536,1.536,0,0,0-.075.473V111.07h-6.329a1.525,1.525,0,0,0-1.525,1.525v13.313h-11.751a1.525,1.525,0,0,0,0,3.05h11.751V137.3a1.525,1.525,0,0,0,1.525,1.525h2.135v43.707L1090.5,209.91a1.518,1.518,0,0,0-.059.415v94.424a1.525,1.525,0,0,0,1.525,1.525H1109.8c.01,0,.019,0,.029,0h25.1c.01,0,.02,0,.029,0h18.055a1.525,1.525,0,0,0,1.525-1.525V210.325a1.513,1.513,0,0,0-.058-.415ZM1122.491,20.236l17,52.111v47.641h-4.239v-7.393a1.525,1.525,0,0,0-1.525-1.525h-7.6a1.525,1.525,0,0,0-1.525,1.525v7.393h-4.245v-7.393a1.525,1.525,0,0,0-1.525-1.525h-7.583a1.525,1.525,0,0,0-1.525,1.525v7.393h-4.239v-7.393c0-.01,0-.02,0-.029V72.348Zm29,282.987h-15.034v-27.8a11.836,11.836,0,0,0-3.663-8.54l-7.312-6.954a4.5,4.5,0,0,0-6.2,0l-7.312,6.954a11.835,11.835,0,0,0-3.664,8.54v27.8h-14.815V210.537l7.744-27.379a1.517,1.517,0,0,0,.058-.415V137.3a1.525,1.525,0,0,0-1.525-1.525h-2.135V114.12h4.8v7.392a1.529,1.529,0,0,0,1.528,1.527h7.288a1.525,1.525,0,0,0,1.525-1.525V114.12h4.533v7.393a1.525,1.525,0,0,0,1.525,1.525h7.3a1.525,1.525,0,0,0,1.525-1.525V114.12h4.55v7.393a1.525,1.525,0,0,0,1.525,1.525h7.289a1.525,1.525,0,0,0,1.525-1.525V114.12h4.794v21.654h-2.122a1.525,1.525,0,0,0-1.525,1.525v45.443a1.517,1.517,0,0,0,.058.415l7.744,27.379Z" transform="translate(-421.739)" fill="#f37137"/>
    <path id="Path_224" data-name="Path 224" d="M1230.607,348.906a1.525,1.525,0,0,0-1.525-1.525h-13.571a1.525,1.525,0,0,0,0,3.05h13.571a1.525,1.525,0,0,0,1.525-1.525" transform="translate(-473.487 -135.488)" fill="#f37137"/>
    <path id="Path_225" data-name="Path 225" d="M1193.208,292.646a1.525,1.525,0,0,0,1.525,1.525h83.632a1.525,1.525,0,0,0,0-3.05h-83.632a1.525,1.525,0,0,0-1.525,1.525" transform="translate(-465.383 -113.545)" fill="#f37137"/>
    <path id="Path_226" data-name="Path 226" d="M964.759,294.171h83.632a1.525,1.525,0,0,0,0-3.05H964.759a1.525,1.525,0,0,0,0,3.05" transform="translate(-375.687 -113.545)" fill="#f37137"/>
    <path id="Path_227" data-name="Path 227" d="M1147.357,217.015a1.525,1.525,0,0,0-2.773,0l-2.315,5.054a1.52,1.52,0,0,0-.139.635v30.625a1.525,1.525,0,0,0,1.525,1.525h4.63a1.525,1.525,0,0,0,1.525-1.525V222.7a1.531,1.531,0,0,0-.138-.635Z" transform="translate(-445.461 -84.295)" fill="#f37137"/>
    <path id="Path_228" data-name="Path 228" d="M1130.322,217.015a1.525,1.525,0,0,0-2.773,0l-2.315,5.054a1.529,1.529,0,0,0-.138.635v30.625a1.525,1.525,0,0,0,1.525,1.525h4.63a1.525,1.525,0,0,0,1.525-1.525V222.7a1.518,1.518,0,0,0-.139-.635Z" transform="translate(-438.818 -84.295)" fill="#f37137"/>
    <path id="Path_229" data-name="Path 229" d="M1164.362,217.015a1.525,1.525,0,0,0-2.773,0l-2.315,5.054a1.52,1.52,0,0,0-.139.635v30.625a1.525,1.525,0,0,0,1.525,1.525h4.63a1.525,1.525,0,0,0,1.525-1.525V222.7a1.533,1.533,0,0,0-.138-.635Z" transform="translate(-452.094 -84.295)" fill="#f37137"/>
    <path id="Path_230" data-name="Path 230" d="M993.224,396.883a2.721,2.721,0,0,0-2.087,1.013l-3.255,3.921a8.074,8.074,0,0,0-1.771,5.166v16.535a1.525,1.525,0,0,0,1.525,1.525h11.176a1.525,1.525,0,0,0,1.525-1.525V406.984a8.074,8.074,0,0,0-1.771-5.166l-3.255-3.921a2.721,2.721,0,0,0-2.086-1.013" transform="translate(-384.61 -154.795)" fill="#f37137"/>
    <path id="Path_231" data-name="Path 231" d="M1030.871,396.883a2.723,2.723,0,0,0-2.085,1.013l-3.255,3.921a8.074,8.074,0,0,0-1.771,5.166v16.535a1.525,1.525,0,0,0,1.525,1.525h11.176a1.525,1.525,0,0,0,1.525-1.525V406.984a8.074,8.074,0,0,0-1.771-5.166l-3.256-3.922a2.723,2.723,0,0,0-2.086-1.013Z" transform="translate(-399.293 -154.795)" fill="#f37137"/>
    <path id="Path_232" data-name="Path 232" d="M1072.723,425.044a1.525,1.525,0,0,0,1.525-1.525V406.984a8.074,8.074,0,0,0-1.771-5.166l-3.255-3.922a2.656,2.656,0,0,0-4.173,0l-3.255,3.921a8.074,8.074,0,0,0-1.771,5.166v16.535a1.525,1.525,0,0,0,1.525,1.525Z" transform="translate(-413.437 -154.795)" fill="#f37137"/>
    <path id="Path_233" data-name="Path 233" d="M1220.6,396.883a2.723,2.723,0,0,0-2.087,1.013l-3.255,3.921a8.074,8.074,0,0,0-1.771,5.166v16.535a1.525,1.525,0,0,0,1.525,1.525h11.176a1.525,1.525,0,0,0,1.525-1.525V406.984a8.074,8.074,0,0,0-1.771-5.166l-3.255-3.922a2.723,2.723,0,0,0-2.086-1.013" transform="translate(-473.293 -154.795)" fill="#f37137"/>
    <path id="Path_234" data-name="Path 234" d="M1252.659,425.044h11.177a1.525,1.525,0,0,0,1.525-1.525V406.984a8.074,8.074,0,0,0-1.771-5.166l-3.255-3.922a2.655,2.655,0,0,0-4.173,0l-3.255,3.921a8.074,8.074,0,0,0-1.771,5.166v16.535a1.525,1.525,0,0,0,1.525,1.525" transform="translate(-487.976 -154.795)" fill="#f37137"/>
    <path id="Path_235" data-name="Path 235" d="M1288.923,425.044H1300.1a1.525,1.525,0,0,0,1.525-1.525V406.984a8.074,8.074,0,0,0-1.771-5.166L1296.6,397.9a2.655,2.655,0,0,0-4.173,0l-3.254,3.921a8.067,8.067,0,0,0-1.772,5.166v16.535a1.525,1.525,0,0,0,1.525,1.525" transform="translate(-502.12 -154.795)" fill="#f37137"/>
    <path id="Path_236" data-name="Path 236" d="M940.105,379.572h-.12a2.5,2.5,0,0,0-2.494,2.494v6.024a1.525,1.525,0,0,0,1.525,1.525h2.059a1.525,1.525,0,0,0,1.525-1.525v-6.024a2.5,2.5,0,0,0-2.494-2.494" transform="translate(-365.647 -148.043)" fill="#f37137"/>
    <path id="Path_237" data-name="Path 237" d="M940.105,412.478h-.12a2.5,2.5,0,0,0-2.494,2.494V421a1.525,1.525,0,0,0,1.525,1.525h2.059A1.525,1.525,0,0,0,942.6,421v-6.024a2.5,2.5,0,0,0-2.494-2.494" transform="translate(-365.647 -160.877)" fill="#f37137"/>
    <path id="Path_238" data-name="Path 238" d="M940.105,445.385h-.12a2.5,2.5,0,0,0-2.494,2.494V453.9a1.525,1.525,0,0,0,1.525,1.525h2.059A1.525,1.525,0,0,0,942.6,453.9v-6.024a2.5,2.5,0,0,0-2.494-2.494" transform="translate(-365.647 -173.712)" fill="#f37137"/>
    <path id="Path_239" data-name="Path 239" d="M1354.139,379.572h-.12a2.5,2.5,0,0,0-2.494,2.494v6.024a1.525,1.525,0,0,0,1.525,1.525h2.059a1.525,1.525,0,0,0,1.525-1.525v-6.024a2.5,2.5,0,0,0-2.494-2.494" transform="translate(-527.131 -148.043)" fill="#f37137"/>
    <path id="Path_240" data-name="Path 240" d="M1354.139,412.478h-.12a2.5,2.5,0,0,0-2.494,2.494V421a1.525,1.525,0,0,0,1.525,1.525h2.059a1.525,1.525,0,0,0,1.525-1.525v-6.024a2.5,2.5,0,0,0-2.494-2.494" transform="translate(-527.131 -160.877)" fill="#f37137"/>
    <path id="Path_241" data-name="Path 241" d="M1354.139,445.385h-.12a2.5,2.5,0,0,0-2.494,2.494V453.9a1.525,1.525,0,0,0,1.525,1.525h2.059a1.525,1.525,0,0,0,1.525-1.525v-6.024a2.5,2.5,0,0,0-2.494-2.494" transform="translate(-527.131 -173.712)" fill="#f37137"/>
    <path id="Path_242" data-name="Path 242" d="M884.047,391.447H816.72V303.163h2.591a1.526,1.526,0,0,0,1.4-2.12l-22.036-51.967a4.841,4.841,0,0,0-.486-9.014v-5.618a1.525,1.525,0,1,0-3.05,0v5.628a4.839,4.839,0,0,0-.481,8.992l-22.046,51.978a1.525,1.525,0,0,0,1.4,2.121h2.591V391.45H727.339v-24.9a1.522,1.522,0,0,0-.16-.68l-2.743-5.506V308.317a4.426,4.426,0,0,0,0-8.315V282.365a19.177,19.177,0,0,1,17.63-19.089v11.612a9.6,9.6,0,0,0-8.071,9.463,1.525,1.525,0,0,0,1.525,1.525h16.143a1.525,1.525,0,0,0,1.525-1.525,9.6,9.6,0,0,0-8.072-9.463v-13.38a1.525,1.525,0,0,0-1.525-1.525,19.182,19.182,0,0,1-19.051-17.165,2.322,2.322,0,0,1,.586-1.008,2.412,2.412,0,0,1,3.327,0,2.354,2.354,0,0,1,0,3.329,1.525,1.525,0,0,0,2.157,2.155,5.4,5.4,0,0,0-6.174-8.679v-10.9a1.525,1.525,0,1,0-3.05,0v10.9a5.4,5.4,0,0,0-6.172,8.68,1.525,1.525,0,0,0,2.156-2.156,2.352,2.352,0,0,1,0-3.327,2.412,2.412,0,0,1,3.327,0,2.326,2.326,0,0,1,.585,1.008,19.182,19.182,0,0,1-19.051,17.165,1.525,1.525,0,0,0-1.525,1.525v13.38a9.6,9.6,0,0,0-8.072,9.463,1.525,1.525,0,0,0,1.525,1.525H710.3a1.525,1.525,0,0,0,1.525-1.525,9.6,9.6,0,0,0-8.071-9.463V263.275a19.177,19.177,0,0,1,17.629,19.089V300a4.425,4.425,0,0,0,0,8.315V360.36l-2.744,5.506a1.521,1.521,0,0,0-.16.68v24.9H611.466V302.243l9.722-9.427a1.525,1.525,0,1,0-2.123-2.19l-7.6,7.368V277.622a1.525,1.525,0,0,0-3.05,0v36.511l-18.136-17.6a1.525,1.525,0,1,0-2.124,2.189l20.26,19.665V391.45H572.927V330.9a1.525,1.525,0,0,0-3.05,0v62.072A1.525,1.525,0,0,0,571.4,394.5H778.136a1.525,1.525,0,0,0,1.525-1.525h0V303.162h24.91a1.525,1.525,0,0,0,0-3.05H776.323l20.345-47.966,20.34,47.966h-1.813a1.525,1.525,0,0,0-1.525,1.525v91.337a1.525,1.525,0,0,0,1.525,1.525l.018,0h68.834a1.525,1.525,0,0,0,0-3.05M710.08,261.6A22.322,22.322,0,0,0,722.911,248.9,22.32,22.32,0,0,0,735.741,261.6a22.317,22.317,0,0,0-12.831,12.7,22.317,22.317,0,0,0-12.831-12.7" transform="translate(-222.267 -88.22)" fill="#f37137"/>
    <path id="Path_243" data-name="Path 243" d="M1129.286,118.761h19.137a1.525,1.525,0,1,0,0-3.05h-19.137a1.525,1.525,0,1,0,0,3.05" transform="translate(-439.857 -45.13)" fill="#f37137"/>
    <path id="Path_244" data-name="Path 244" d="M1168.24,118.782h.03a1.54,1.54,0,0,0,1.51-1.555v-.015a1.54,1.54,0,1,0-3.08.031v.015a1.54,1.54,0,0,0,1.54,1.525" transform="translate(-455.044 -45.121)" fill="#f37137"/>
    <path id="Path_245" data-name="Path 245" d="M587.989,343.04a1.525,1.525,0,0,0,0-3.05A22.7,22.7,0,0,1,565.9,322.739a1.526,1.526,0,0,0-1.29-1.146,15.94,15.94,0,0,1-7.283-28.75,1.525,1.525,0,0,0,.626-1.357c-.039-.487-.057-1.007-.057-1.637a22.847,22.847,0,0,1,16.559-21.906,1.525,1.525,0,0,0,1.061-1.087,15.965,15.965,0,0,1,26.952-7.091,1.526,1.526,0,0,0,1.624.371,22.805,22.805,0,0,1,28.414,11.4,1.524,1.524,0,0,0,1.273.854,15.976,15.976,0,0,1,14.915,15.915,15.442,15.442,0,0,1-.182,2.43,1.525,1.525,0,0,0,.422,1.31,22.775,22.775,0,0,1-16.184,38.783,23,23,0,0,1-5.1-.578,1.524,1.524,0,0,0-1.672.746,15.987,15.987,0,0,1-13.961,8.22,1.525,1.525,0,0,0,0,3.05,19.036,19.036,0,0,0,16.048-8.817,25.808,25.808,0,0,0,30.5-25.394,25.648,25.648,0,0,0-6.931-17.609,19.049,19.049,0,0,0-16.776-21.025,25.854,25.854,0,0,0-30.894-12.47,19.016,19.016,0,0,0-31.16,8.3,25.916,25.916,0,0,0-17.953,24.592c0,.371.006.712.018,1.033a18.991,18.991,0,0,0,8.341,33.58,25.749,25.749,0,0,0,24.788,18.577" transform="translate(-213.595 -98.221)" fill="#f37137"/>
    <path id="Path_246" data-name="Path 246" d="M2217.349,325.474a1.525,1.525,0,0,0-2.156-.032l-18.137,17.6V306.534a1.525,1.525,0,1,0-3.05,0V326.9l-17.248-16.741a1.525,1.525,0,1,0-2.125,2.189l19.373,18.8v50.1a1.525,1.525,0,1,0,3.05,0V347.3l20.261-19.665a1.525,1.525,0,0,0,.032-2.156" transform="translate(-847.985 -118.962)" fill="#f37137"/>
    <path id="Path_247" data-name="Path 247" d="M2138.287,321.462a25.748,25.748,0,0,0,24.788,18.577,1.525,1.525,0,1,0,0-3.05,22.7,22.7,0,0,1-22.093-17.251,1.526,1.526,0,0,0-1.29-1.146,15.94,15.94,0,0,1-7.284-28.75,1.526,1.526,0,0,0,.627-1.355c-.038-.487-.057-1.023-.057-1.638a22.848,22.848,0,0,1,16.559-21.906,1.525,1.525,0,0,0,1.062-1.087,15.964,15.964,0,0,1,26.952-7.09,1.528,1.528,0,0,0,1.623.37,22.805,22.805,0,0,1,28.414,11.4,1.526,1.526,0,0,0,1.273.854,15.976,15.976,0,0,1,14.915,15.916,15.374,15.374,0,0,1-.182,2.43,1.524,1.524,0,0,0,.423,1.31,22.776,22.776,0,0,1-16.184,38.783,22.994,22.994,0,0,1-5.1-.578,1.522,1.522,0,0,0-1.671.746,15.988,15.988,0,0,1-13.962,8.22,1.525,1.525,0,1,0,0,3.05,19.039,19.039,0,0,0,16.049-8.817,25.808,25.808,0,0,0,30.5-25.394,25.647,25.647,0,0,0-6.931-17.609,19.054,19.054,0,0,0-16.776-21.024,25.853,25.853,0,0,0-30.894-12.471,19.015,19.015,0,0,0-31.16,8.3,25.916,25.916,0,0,0-17.953,24.592c0,.365.006.708.018,1.033a18.991,18.991,0,0,0,8.341,33.58" transform="translate(-827.921 -97.051)" fill="#f37137"/>
    <path id="Path_248" data-name="Path 248" d="M2206.665,439.8v.015a1.54,1.54,0,0,0,1.54,1.525h.031a1.54,1.54,0,0,0,1.51-1.555v-.015a1.54,1.54,0,1,0-3.08.03" transform="translate(-860.659 -170.928)" fill="#f37137"/>
    <path id="Path_249" data-name="Path 249" d="M659.215,326.457v-.016a1.54,1.54,0,0,0-3.08.03v.016a1.54,1.54,0,0,0,1.54,1.525h.031a1.54,1.54,0,0,0,1.509-1.555" transform="translate(-255.91 -126.726)" fill="#f37137"/>
    <path id="Path_250" data-name="Path 250" d="M2518.447,370.589v-.015a1.54,1.54,0,0,0-3.081.031v.015a1.541,1.541,0,0,0,1.541,1.525h.03a1.54,1.54,0,0,0,1.51-1.555" transform="translate(-981.06 -143.939)" fill="#f37137"/>
    <path id="Path_251" data-name="Path 251" d="M2742.111,280.484h.031a1.54,1.54,0,0,0,1.51-1.555v-.015a1.541,1.541,0,0,0-1.555-1.525h0a1.54,1.54,0,0,0-1.524,1.555v.016A1.54,1.54,0,0,0,2742.111,280.484Z" transform="translate(-1068.896 -108.189)" fill="#f37137"/>
    <path id="Path_252" data-name="Path 252" d="M2853.616,392.875v.015a1.54,1.54,0,0,0,1.54,1.525h.031a1.541,1.541,0,0,0,1.51-1.555v-.015a1.541,1.541,0,0,0-1.555-1.525h0a1.54,1.54,0,0,0-1.525,1.555" transform="translate(-1112.987 -152.625)" fill="#f37137"/>
    <path id="Path_253" data-name="Path 253" d="M2362.392,392.86v-.015a1.54,1.54,0,1,0-3.08.031v.015a1.54,1.54,0,0,0,1.54,1.525h.03a1.54,1.54,0,0,0,1.51-1.555" transform="translate(-920.195 -152.625)" fill="#f37137"/>
    <path id="Path_254" data-name="Path 254" d="M2492.379,370.6a1.525,1.525,0,0,0-1.525-1.525h-25.825a1.525,1.525,0,1,0,0,3.05h25.825a1.525,1.525,0,0,0,1.525-1.525" transform="translate(-960.833 -143.948)" fill="#f37137"/>
    <path id="Path_255" data-name="Path 255" d="M2525.813,370.6a1.525,1.525,0,0,0,1.525,1.525H2568.7a1.525,1.525,0,0,0,0-3.05h-41.366a1.525,1.525,0,0,0-1.525,1.525" transform="translate(-985.135 -143.948)" fill="#f37137"/>
    <path id="Path_256" data-name="Path 256" d="M2667.537,370.6a1.525,1.525,0,0,0-1.525-1.525h-60.425a1.525,1.525,0,0,0,0,3.05h60.425a1.525,1.525,0,0,0,1.525-1.525" transform="translate(-1015.654 -143.948)" fill="#f37137"/>
  </g>
</svg>
