<svg xmlns="http://www.w3.org/2000/svg" xmlns:xlink="http://www.w3.org/1999/xlink" width="414" height="799" viewBox="0 0 414 799">
  <defs>
    <clipPath id="clip-path">
      <rect id="Rectangle_244" data-name="Rectangle 244" width="414" height="799" transform="translate(8049.606 6520.469)" fill="#41286e"/>
    </clipPath>
    <clipPath id="clip-path-2">
      <rect id="Rectangle_19" data-name="Rectangle 19" width="815.63" height="549.883" fill="#3cb4be"/>
    </clipPath>
  </defs>
  <g id="Mask_Group_10" data-name="Mask Group 10" transform="translate(-8049.606 -6520.469)" clip-path="url(#clip-path)">
    <g id="Group_136" data-name="Group 136" transform="translate(8000.215 7301.725) rotate(-90)" opacity="0.1">
      <g id="Group_15" data-name="Group 15" clip-path="url(#clip-path-2)">
        <path id="Path_10" data-name="Path 10" d="M30.5,534.642c-.162-15.269.1-30.556,1.417-45.775.319-3.686.711-7.363,1.146-11.036a20.853,20.853,0,0,1,.3-2.221c.31-2.081.63-4.16.984-6.234A218.641,218.641,0,0,1,39.276,447.2q1.469-5.243,3.243-10.4.886-2.566,1.852-5.1c.367-.965.75-1.925,1.132-2.885.264-.664.918-2.138.266-.647A144.3,144.3,0,0,1,56.332,408.31a93.58,93.58,0,0,1,12.685-16.292,158.263,158.263,0,0,1,15.9-14.943c2.38-1.931,1.127-.869.589-.466q.93-.7,1.871-1.376,2.191-1.587,4.441-3.092,4.821-3.221,9.888-6.045,4.725-2.639,9.63-4.931c.557-.26,4.656-2.081,2.733-1.269,1.9-.8,3.831-1.537,5.767-2.249a158.507,158.507,0,0,1,21.577-6.219c3.54-.755,7.107-1.4,10.693-1.909,1.8-.255.128,0-.2.034,1.028-.12,2.057-.237,3.087-.339q3.09-.311,6.191-.5a161.05,161.05,0,0,1,21.72.119q2.708.2,5.408.491c.348.037,3.53.417,1.825.2-1.522-.2,1,.152,1.048.159,4.027.637,8.053,1.325,12.041,2.17a173.527,173.527,0,0,1,23.11,6.651,160.943,160.943,0,0,1,19.761,8.624c28.52,14.328,54.037,33.721,80.265,51.72a385.827,385.827,0,0,0,89.594,46.112c57.935,20.464,131.184,26.657,183.567-11.327,45.227-32.795,68.158-88.7,57.171-143.753-6.325-31.688-24.005-61.14-50.505-79.856-22.394-15.817-55.856-21.278-78.156-2.45-14.353,12.118-18.062,33.89-11.486,51.027,5.882,15.329,17.286,27.42,31.266,35.834,30.51,18.361,70.138,17.709,98.17-4.87,16.674-13.431,26.752-33.986,31.783-54.436,8.388-34.1,6.889-70.673,12.971-104.291a217.633,217.633,0,0,1,6.011-24.819q1.454-4.765,3.129-9.46.813-2.272,1.682-4.521.367-.95.744-1.9c-.023.058,1.536-3.684.767-1.9-.682,1.591.2-.422.283-.612.369-.791.714-1.592,1.08-2.384q.949-2.048,1.954-4.069,2.1-4.218,4.46-8.3A141.023,141.023,0,0,1,720.2,78.828c-2.252,2.994.807-.933,1.285-1.5q1.124-1.34,2.285-2.648,2.886-3.251,5.995-6.293,2.892-2.832,5.961-5.474c1.027-.882,2.083-1.725,3.116-2.6.534-.453,2.271-1.765-.339.224q.929-.708,1.866-1.4a163.641,163.641,0,0,1,30.5-17.495c.614-.274,4.4-1.891,2.912-1.274-1.469.608,2.538-1.009,3.034-1.2q4.058-1.594,8.169-3.046c6.426-2.277,12.935-4.308,19.486-6.194a15.5,15.5,0,0,0,10.636-18.731A15.424,15.424,0,0,0,796.374.553c-23.913,6.886-48.009,15.873-68.525,30.23a147.025,147.025,0,0,0-46.6,52.754c-14.677,28.285-20.962,59.226-24.115,90.7-3.053,30.481-3.574,59.586-13.761,88.54.971-2.763.271-.613-.412.864q-.666,1.439-1.38,2.856c-1.142,2.264-2.378,4.482-3.719,6.636-1.1,1.773-2.417,3.413-3.518,5.18-1.039,1.668,1.99-2.3.673-.864-.31.337-.569.725-.872,1.07-.8.907-1.567,1.832-2.388,2.718q-1.94,2.1-4.054,4.019c-.74.673-1.5,1.318-2.265,1.967-.321.274-.67.519-.987.8-1.307,1.151,3.212-2.211.743-.609a100.329,100.329,0,0,1-9.8,5.771c-2.925,1.461.688-.369.729-.258.012.036-2.262.873-2.578.986q-2.578.923-5.229,1.618c-1.755.461-3.524.815-5.3,1.157-.651.126-3.49.525-.648.137,2.973-.405-.7.044-1.422.1a71.515,71.515,0,0,1-10.727.065c-.889-.061-1.776-.153-2.664-.229-2.684-.229-.081-.48,1.021.166-1.288-.756-4.128-.7-5.608-1.028a79.075,79.075,0,0,1-10.123-2.962c-.818-.3-1.622-.638-2.439-.939-2.389-.88,3.174,1.5.9.37-1.65-.823-3.328-1.565-4.954-2.44a86.613,86.613,0,0,1-8.255-5.157c-2.615-1.811.945.815.55.46-.6-.544-1.27-1.028-1.887-1.558q-1.83-1.568-3.538-3.275c-1.115-1.117-2.154-2.291-3.2-3.472-.346-.391-.809-1.311-1.261-1.543,2.167,1.118,2,2.863,1.189,1.507-.222-.372-.518-.7-.755-1.067-.822-1.264-1.648-2.514-2.382-3.833-.309-.556-.588-1.127-.891-1.686-1.332-2.454-.005-1.169.229.774-.314-2.605-1.739-5.706-2.377-8.322-.525-2.153.242,4.357.209,1.3-.007-.615-.084-1.234-.1-1.852-.038-1.314.517-3.46.188-4.676.262.966-.772,4.108-.175,1.532.171-.735.3-1.478.484-2.211.37-1.472,1.423-3.285,1.548-4.755-.059.7-1.952,2.843-.669,1.812a7.667,7.667,0,0,0,1.022-1.621c1.464-2.4.3-.291-.119.145.417-.432.787-.913,1.231-1.319.955-.873,3.456-2.648.953-1.04,1.311-.843,2.629-1.594,3.983-2.362,2.387-1.356-2.022.436.655-.226,1.324-.327,2.638-.733,3.963-1.068.575-.144,1.165-.217,1.745-.335-.539.109-3.33.242-.482.1,1.625-.078,3.234-.177,4.865-.145,1.238.024,2.465.147,3.7.205.782.036,2.849.534-.331-.085.616.12,1.242.191,1.856.324a78.8,78.8,0,0,1,8.546,2.245c1.047.352,4.384,1.689,1.651.5q2,.869,3.935,1.875a66.83,66.83,0,0,1,7.241,4.411,48.728,48.728,0,0,1,6.952,5.5,97.408,97.408,0,0,1,8,8.169c7.967,9.136,15.292,23.072,19.059,34.774a129.345,129.345,0,0,1,4.483,18.7c.109.667.207,1.336.3,2.005-.034-.237-.217-2.5-.114-.71.089,1.555.331,3.112.451,4.668q.358,4.639.367,9.3.008,4.613-.329,9.216c-.111,1.526-.263,3.047-.42,4.567-.066.651-.149,1.3-.229,1.949.169-1.385.273-1.787-.008-.172a139.584,139.584,0,0,1-4.138,17.691q-1.348,4.322-3,8.54c-.4,1.01-1.546,3.553-.45,1.134-.712,1.569-1.418,3.138-2.176,4.685a127.819,127.819,0,0,1-9.07,15.63c-.848,1.249-1.728,2.474-2.61,3.7-.377.525-.769,1.041-1.157,1.558.13-.173,1.485-1.868.4-.524-2.045,2.522-4.133,5-6.343,7.377a146.331,146.331,0,0,1-13.348,12.457c-2.2,1.844,1.263-.837-1.075.834-1.252.9-2.489,1.807-3.758,2.678q-4.1,2.817-8.415,5.3-3.771,2.173-7.684,4.083c-1.414.69-2.847,1.338-4.279,1.994-.17.077-2.238.946-.675.3,1.732-.718-2.043.78-1.971.752a129.3,129.3,0,0,1-17.906,5.365,123.824,123.824,0,0,1-20.647,2.966c-32.449,2.439-61.619-2.731-92.536-13.265-28.917-9.853-56.737-24.519-82.875-42.315-25.63-17.448-50.4-36.388-77.87-50.943-28.1-14.891-58.718-24.51-90.669-25.452a175.149,175.149,0,0,0-87.562,20.663C61.5,353.145,38.418,376,24.171,403.023,9.666,430.542,3.573,461.253,1.2,492.03.109,506.206-.108,520.43.043,534.642c.084,7.962,6.944,15.6,15.228,15.228,8.178-.367,15.318-6.693,15.228-15.228" transform="translate(0 -0.001)" fill="#3cb4be"/>
      </g>
    </g>
  </g>
</svg>
