<svg id="Group_75" data-name="Group 75" xmlns="http://www.w3.org/2000/svg" xmlns:xlink="http://www.w3.org/1999/xlink" width="288.045" height="70.813" viewBox="0 0 288.045 70.813">
  <defs>
    <clipPath id="clip-path">
      <rect id="Rectangle_2" data-name="Rectangle 2" width="288.045" height="70.814" fill="#f37137"/>
    </clipPath>
  </defs>
  <g id="Group_1" data-name="Group 1" clip-path="url(#clip-path)">
    <path id="Path_1" data-name="Path 1" d="M347.535,55.331h-7.884a1.263,1.263,0,0,1-1.263-1.264v-2.23H337.6c-1.854,2.353-4.921,4.42-10.125,4.42-9.7,0-17.541-8.485-17.541-19.751,0-10.981,7.273-19.681,16.971-19.681,5.775,0,9.127,2.5,10.7,4.777h.784V3.043a1.263,1.263,0,0,1,1.263-1.264h7.884A1.263,1.263,0,0,1,348.8,3.043V54.066a1.263,1.263,0,0,1-1.263,1.264M320.49,36.577c0,5.847,4.064,9.769,9.055,9.769,5.42,0,8.985-4.493,8.985-9.769,0-6.274-4.135-9.912-9.055-9.912-5.063,0-8.985,3.993-8.985,9.912" transform="translate(-159.664 -0.916)" fill="#f37137"/>
    <path id="Path_2" data-name="Path 2" d="M1.263,33.737H9.148A1.263,1.263,0,0,1,10.411,35v2.231H11.2c1.854-2.353,4.92-4.421,10.125-4.421,9.7,0,17.541,8.485,17.541,19.752,0,10.981-7.273,19.68-16.971,19.68-5.776,0-9.127-2.5-10.7-4.777h-.784V86.452a1.263,1.263,0,0,1-1.263,1.264H1.263A1.263,1.263,0,0,1,0,86.452V35a1.264,1.264,0,0,1,1.263-1.264M28.308,52.491c0-5.847-4.065-9.768-9.056-9.768-5.419,0-8.985,4.491-8.985,9.768,0,6.274,4.136,9.912,9.056,9.912,5.063,0,8.985-3.994,8.985-9.912" transform="translate(0 -16.903)" fill="#f37137"/>
    <path id="Path_3" data-name="Path 3" d="M91.4,43.921H87.094a1.264,1.264,0,0,1-1.264-1.263V35.986a1.264,1.264,0,0,1,1.264-1.264H97.952a3.79,3.79,0,0,1,3.79,3.79V71.037a1.264,1.264,0,0,1-1.264,1.264H92.666A1.264,1.264,0,0,1,91.4,71.037Z" transform="translate(-44.215 -17.887)" fill="#f37137"/>
    <path id="Path_4" data-name="Path 4" d="M136,33.738h7.885A1.263,1.263,0,0,1,145.144,35v2.16h.713a10.785,10.785,0,0,1,9.127-4.35c7.915,0,13.192,5.918,13.192,13.263V70.052a1.263,1.263,0,0,1-1.263,1.265h-7.885a1.264,1.264,0,0,1-1.263-1.265V49.425c0-3.75-2.528-6.517-6.12-6.56a6.548,6.548,0,0,0-6.5,6.615V70.052a1.263,1.263,0,0,1-1.263,1.265H136a1.264,1.264,0,0,1-1.263-1.265V35A1.264,1.264,0,0,1,136,33.738" transform="translate(-69.408 -16.903)" fill="#f37137"/>
    <path id="Path_5" data-name="Path 5" d="M233.837,78.161h9.155a2.353,2.353,0,0,0,2.353-2.352V67.823h-.785c-2,2.424-4.849,4.42-10.125,4.42-9.7,0-17.541-8.485-17.541-19.751,0-10.981,7.345-19.68,17.042-19.68a13.2,13.2,0,0,1,10.7,4.777h.785V35a1.263,1.263,0,0,1,1.263-1.264h7.812A1.264,1.264,0,0,1,255.755,35V76.094c0,8.2-4.991,11.622-12.55,11.622h-9.369a1.262,1.262,0,0,1-1.263-1.264V79.425a1.263,1.263,0,0,1,1.263-1.264m11.651-25.67c0-5.989-3.993-9.768-8.985-9.768s-8.984,3.92-8.984,9.768c0,5.919,3.992,9.912,8.984,9.912,5.348,0,8.985-4.422,8.985-9.912" transform="translate(-111.733 -16.903)" fill="#f37137"/>
    <path id="Path_6" data-name="Path 6" d="M403.047,52.492c0-11.338,7.63-19.681,17.256-19.681a13.207,13.207,0,0,1,10.411,4.421h.784V35a1.263,1.263,0,0,1,1.263-1.264h7.885A1.264,1.264,0,0,1,441.909,35V62.608c.5,0,.713.009,1.711.009h2.509a1.264,1.264,0,0,1,1.263,1.263v6.173a1.264,1.264,0,0,1-1.263,1.265H435.705a4.02,4.02,0,0,1-4.136-3.993h-.784c-2,2.852-4.992,4.919-10.411,4.919-9.626,0-17.327-8.484-17.327-19.751m28.594.071c0-6.2-4.136-9.7-9.056-9.7-4.992,0-8.984,3.779-8.984,9.7s4.064,9.7,9.055,9.7c5.419,0,8.985-4.421,8.985-9.7" transform="translate(-207.63 -16.903)" fill="#f37137"/>
    <path id="Path_7" data-name="Path 7" d="M499.3,80.481a1.263,1.263,0,0,1,1.263-1.263h4.227a3.627,3.627,0,0,0,3.921-2.639l1.641-4.278h-1.087a1.264,1.264,0,0,1-1.2-.864L496.364,36.386a1.264,1.264,0,0,1,1.2-1.664h8.552a1.263,1.263,0,0,1,1.217.927L514.7,62.318h.785l7.374-26.669a1.263,1.263,0,0,1,1.218-.927h8.658a1.263,1.263,0,0,1,1.19,1.687L518.056,81.071c-1.925,5.349-5.847,7.63-12.549,7.63h-4.94a1.263,1.263,0,0,1-1.263-1.264Z" transform="translate(-255.668 -17.887)" fill="#f37137"/>
    <path id="Path_8" data-name="Path 8" d="M568.649,95.421a6.169,6.169,0,1,1,6.2,6.061,5.986,5.986,0,0,1-6.2-6.061" transform="translate(-292.939 -46.07)" fill="#f37137"/>
    <path id="Path_9" data-name="Path 9" d="M95.3,5.99a6.171,6.171,0,0,1,12.336,0,6.169,6.169,0,0,1-12.336,0" transform="translate(-49.092)" fill="#f37137"/>
  </g>
</svg>
