<svg xmlns="http://www.w3.org/2000/svg" xmlns:xlink="http://www.w3.org/1999/xlink" width="129.63" height="117.976" viewBox="0 0 129.63 117.976">
  <defs>
    <clipPath id="clip-path">
      <rect id="Rectangle_498" data-name="Rectangle 498" width="129.63" height="117.976" fill="none" stroke="#f37137" stroke-width="1"/>
    </clipPath>
  </defs>
  <g id="Group_495" data-name="Group 495" clip-path="url(#clip-path)">
    <path id="Path_257" data-name="Path 257" d="M33.38,53.27H5.97a14.443,14.443,0,0,1,9.97-24.89c.33,0,.65.01.97.04v-.04A26.884,26.884,0,0,1,62.83,9.4a47.42,47.42,0,0,1,65.3,43.87H79.76" fill="none" stroke="#f37137" stroke-linecap="round" stroke-linejoin="round" stroke-width="3"/>
    <path id="Path_258" data-name="Path 258" d="M33.62,53.27h-.24v-.09Z" fill="none" stroke="#f37137" stroke-linecap="round" stroke-linejoin="round" stroke-width="3"/>
    <line id="Line_8" data-name="Line 8" x2="2.76" transform="translate(33.62 53.27)" fill="none" stroke="#f37137" stroke-linecap="round" stroke-linejoin="round" stroke-width="3"/>
    <path id="Path_259" data-name="Path 259" d="M42.524,48.273,52.937,68.759H34.689l37.73,47.717L63.313,82.312H84L69.9,52.858" fill="none" stroke="#f37137" stroke-linecap="round" stroke-linejoin="round" stroke-width="3"/>
    <path id="Path_260" data-name="Path 260" d="M62.771,9.328a26.385,26.385,0,0,1,7.111,18.057" fill="none" stroke="#f37137" stroke-linecap="round" stroke-linejoin="round" stroke-width="3"/>
    <line id="Line_9" data-name="Line 9" transform="translate(67.327 47.468)" fill="none" stroke="#f37137" stroke-linecap="round" stroke-linejoin="round" stroke-width="3"/>
  </g>
</svg>
