<svg xmlns="http://www.w3.org/2000/svg" width="67.58" height="65.314" viewBox="0 0 67.58 65.314">
  <g id="Group_735" data-name="Group 735" transform="translate(0.75 0.75)">
    <g id="Group_499" data-name="Group 499" transform="translate(0 0)">
      <g id="Group_502" data-name="Group 502" transform="translate(0)">
        <path id="Path_265" data-name="Path 265" d="M46.193,52.566V65.314H1.5V13.723L13.723,1.5h32.47V26.414" transform="translate(-1.5 -1.5)" fill="none" stroke="#fff" stroke-linecap="round" stroke-linejoin="round" stroke-width="1.5"/>
        <path id="Path_266" data-name="Path 266" d="M1.5,13.723,13.723,1.5V13.723Z" transform="translate(-1.5 -1.5)" fill="none" stroke="#fff" stroke-linecap="round" stroke-linejoin="round" stroke-width="1.5"/>
      </g>
    </g>
    <line id="Line_11" data-name="Line 11" x2="17.051" transform="translate(6.556 18.035)" fill="none" stroke="#fff" stroke-linecap="round" stroke-linejoin="round" stroke-width="1.5"/>
    <line id="Line_12" data-name="Line 12" transform="translate(44.693 47.239)" fill="none" stroke="#fff" stroke-linecap="round" stroke-linejoin="round" stroke-width="1.5"/>
    <path id="Path_267" data-name="Path 267" d="M46.425,58.021l-5,3.961L45.171,66.7,79.292,39.645l-3.741-4.718L52.4,53.285" transform="translate(-16.063 -13.692)" fill="none" stroke="#fff" stroke-linecap="round" stroke-linejoin="round" stroke-width="1.5"/>
    <g id="Group_501" data-name="Group 501" transform="translate(6.556 19.094)">
      <g id="Group_503" data-name="Group 503" transform="translate(0 0)">
        <path id="Path_268" data-name="Path 268" d="M95.14,33.7l3.741,4.718,2.322-1.842a1.39,1.39,0,0,0,.226-1.953l-2.013-2.538a1.391,1.391,0,0,0-1.954-.226Z" transform="translate(-42.207 -31.555)" fill="none" stroke="#fff" stroke-linecap="round" stroke-linejoin="round" stroke-width="1.5"/>
        <path id="Path_269" data-name="Path 269" d="M34.9,84.644l4.147-7.13,3.741,4.718Z" transform="translate(-20.238 -48.317)" fill="none" stroke="#fff" stroke-linecap="round" stroke-linejoin="round" stroke-width="1.5"/>
        <line id="Line_13" data-name="Line 13" transform="translate(26.789 22.871)" fill="none" stroke="#fff" stroke-linecap="round" stroke-linejoin="round" stroke-width="1.5"/>
        <line id="Line_14" data-name="Line 14" x2="30.205" transform="translate(0 4.753)" fill="none" stroke="#fff" stroke-linecap="round" stroke-linejoin="round" stroke-width="1.5"/>
        <line id="Line_15" data-name="Line 15" x2="30.205" transform="translate(0 10.563)" fill="none" stroke="#fff" stroke-linecap="round" stroke-linejoin="round" stroke-width="1.5"/>
        <line id="Line_16" data-name="Line 16" x2="20.639" transform="translate(0 16.374)" fill="none" stroke="#fff" stroke-linecap="round" stroke-linejoin="round" stroke-width="1.5"/>
      </g>
    </g>
  </g>
</svg>
