<svg xmlns="http://www.w3.org/2000/svg" width="107.228" height="103.45" viewBox="0 0 107.228 103.45">
  <g id="Group_498" data-name="Group 498" transform="translate(0 0)">
    <g id="Group_499" data-name="Group 499">
      <g id="Group_502" data-name="Group 502">
        <path id="Path_265" data-name="Path 265" d="M71.85,81.883V101.95H1.5V20.74L20.74,1.5H71.85V40.718" fill="none" stroke="#f37137" stroke-linecap="round" stroke-linejoin="round" stroke-width="3"/>
        <path id="Path_266" data-name="Path 266" d="M1.5,20.74,20.74,1.5V20.74Z" fill="none" stroke="#f37137" stroke-linecap="round" stroke-linejoin="round" stroke-width="3"/>
      </g>
    </g>
    <line id="Line_11" data-name="Line 11" x2="26.84" transform="translate(11.819 29.889)" fill="none" stroke="#f37137" stroke-linecap="round" stroke-linejoin="round" stroke-width="3"/>
    <line id="Line_12" data-name="Line 12" transform="translate(71.85 75.859)" fill="none" stroke="#f37137" stroke-linecap="round" stroke-linejoin="round" stroke-width="3"/>
    <path id="Path_267" data-name="Path 267" d="M49.293,71.28,41.43,77.515l5.888,7.426,53.709-42.587-5.888-7.426L58.7,63.824" fill="none" stroke="#f37137" stroke-linecap="round" stroke-linejoin="round" stroke-width="3"/>
    <g id="Group_501" data-name="Group 501">
      <g id="Group_503" data-name="Group 503">
        <path id="Path_268" data-name="Path 268" d="M95.14,34.927l5.888,7.426,3.655-2.9a2.188,2.188,0,0,0,.356-3.075l-3.168-4a2.19,2.19,0,0,0-3.076-.355Z" fill="none" stroke="#f37137" stroke-linecap="round" stroke-linejoin="round" stroke-width="3"/>
        <path id="Path_269" data-name="Path 269" d="M34.9,88.738,41.43,77.515l5.888,7.426Z" fill="none" stroke="#f37137" stroke-linecap="round" stroke-linejoin="round" stroke-width="3"/>
        <line id="Line_13" data-name="Line 13" transform="translate(53.988 67.557)" fill="none" stroke="#f37137" stroke-linecap="round" stroke-linejoin="round" stroke-width="3"/>
        <line id="Line_14" data-name="Line 14" x2="47.546" transform="translate(11.819 39.036)" fill="none" stroke="#f37137" stroke-linecap="round" stroke-linejoin="round" stroke-width="3"/>
        <line id="Line_15" data-name="Line 15" x2="47.546" transform="translate(11.819 48.183)" fill="none" stroke="#f37137" stroke-linecap="round" stroke-linejoin="round" stroke-width="3"/>
        <line id="Line_16" data-name="Line 16" x2="32.488" transform="translate(11.819 57.33)" fill="none" stroke="#f37137" stroke-linecap="round" stroke-linejoin="round" stroke-width="3"/>
      </g>
    </g>
  </g>
</svg>
