<svg id="Group_6" data-name="Group 6" xmlns="http://www.w3.org/2000/svg" xmlns:xlink="http://www.w3.org/1999/xlink" width="239.99" height="59" viewBox="0 0 239.99 59">
  <defs>
    <clipPath id="clip-path">
      <rect id="Rectangle_2" data-name="Rectangle 2" width="239.99" height="59" fill="#f37137"/>
    </clipPath>
  </defs>
  <g id="Group_1" data-name="Group 1" clip-path="url(#clip-path)">
    <path id="Path_1" data-name="Path 1" d="M341.263,46.4h-6.569a1.053,1.053,0,0,1-1.053-1.054V43.485h-.653c-1.545,1.961-4.1,3.683-8.436,3.683-8.08,0-14.615-7.069-14.615-16.456,0-9.149,6.059-16.4,14.14-16.4,4.812,0,7.6,2.08,8.911,3.98h.653V2.832a1.052,1.052,0,0,1,1.053-1.053h6.569a1.052,1.052,0,0,1,1.052,1.053V45.343a1.052,1.052,0,0,1-1.052,1.054M318.73,30.771c0,4.872,3.386,8.139,7.544,8.139,4.516,0,7.486-3.744,7.486-8.139,0-5.228-3.445-8.258-7.544-8.258-4.218,0-7.486,3.327-7.486,8.258" transform="translate(-184.734 -1.06)" fill="#f37137"/>
    <path id="Path_2" data-name="Path 2" d="M1.052,33.583H7.622a1.053,1.053,0,0,1,1.052,1.053v1.859h.654c1.545-1.96,4.1-3.683,8.436-3.683,8.08,0,14.615,7.069,14.615,16.457,0,9.149-6.06,16.4-14.14,16.4-4.812,0-7.6-2.079-8.911-3.98H8.674V77.5a1.052,1.052,0,0,1-1.052,1.053H1.052A1.052,1.052,0,0,1,0,77.5V34.636a1.053,1.053,0,0,1,1.052-1.053M23.586,49.208c0-4.872-3.386-8.138-7.545-8.138-4.515,0-7.486,3.742-7.486,8.138,0,5.228,3.446,8.259,7.545,8.259,4.218,0,7.486-3.327,7.486-8.259" transform="translate(0 -19.557)" fill="#f37137"/>
    <path id="Path_3" data-name="Path 3" d="M90.473,42.386h-3.59a1.053,1.053,0,0,1-1.053-1.052V35.775a1.053,1.053,0,0,1,1.053-1.053H95.93a3.158,3.158,0,0,1,3.158,3.158v27.1a1.053,1.053,0,0,1-1.053,1.054H91.525a1.053,1.053,0,0,1-1.053-1.054Z" transform="translate(-51.158 -20.696)" fill="#f37137"/>
    <path id="Path_4" data-name="Path 4" d="M135.785,33.583h6.569a1.053,1.053,0,0,1,1.052,1.053v1.8H144a8.986,8.986,0,0,1,7.6-3.624A10.69,10.69,0,0,1,162.6,43.861V63.839a1.053,1.053,0,0,1-1.052,1.054h-6.569a1.053,1.053,0,0,1-1.052-1.054V46.654a5.139,5.139,0,0,0-5.1-5.465,5.455,5.455,0,0,0-5.416,5.512V63.839a1.053,1.053,0,0,1-1.052,1.054h-6.569a1.053,1.053,0,0,1-1.052-1.054v-29.2a1.053,1.053,0,0,1,1.052-1.053" transform="translate(-80.306 -19.557)" fill="#f37137"/>
    <path id="Path_5" data-name="Path 5" d="M231.01,70.6h7.628a1.961,1.961,0,0,0,1.961-1.96V61.982h-.654c-1.663,2.019-4.04,3.683-8.436,3.683-8.079,0-14.615-7.069-14.615-16.456,0-9.149,6.119-16.4,14.2-16.4A10.994,10.994,0,0,1,240,36.791h.654V34.636a1.053,1.053,0,0,1,1.052-1.053h6.509a1.053,1.053,0,0,1,1.053,1.053V68.873c0,6.832-4.158,9.683-10.456,9.683H231.01a1.052,1.052,0,0,1-1.052-1.053V71.648A1.052,1.052,0,0,1,231.01,70.6m9.707-21.387c0-4.99-3.327-8.138-7.486-8.138s-7.485,3.266-7.485,8.138c0,4.931,3.326,8.259,7.485,8.259,4.456,0,7.486-3.684,7.486-8.259" transform="translate(-129.277 -19.557)" fill="#f37137"/>
    <path id="Path_6" data-name="Path 6" d="M403.047,49.208c0-9.447,6.357-16.4,14.377-16.4a11,11,0,0,1,8.674,3.684h.653V34.636a1.053,1.053,0,0,1,1.052-1.053h6.569a1.053,1.053,0,0,1,1.052,1.053v23c.421,0,.594.007,1.426.007h2.09a1.053,1.053,0,0,1,1.052,1.052v5.143a1.053,1.053,0,0,1-1.052,1.054h-8.684a3.349,3.349,0,0,1-3.446-3.327h-.653c-1.664,2.377-4.159,4.1-8.674,4.1-8.02,0-14.436-7.069-14.436-16.456m23.823.059c0-5.168-3.446-8.08-7.545-8.08-4.159,0-7.485,3.149-7.485,8.08s3.386,8.08,7.544,8.08c4.515,0,7.486-3.684,7.486-8.08" transform="translate(-240.231 -19.557)" fill="#f37137"/>
    <path id="Path_7" data-name="Path 7" d="M498.8,72.847a1.052,1.052,0,0,1,1.052-1.052h3.522a3.022,3.022,0,0,0,3.267-2.2l1.367-3.564H507.1a1.053,1.053,0,0,1-1-.72l-9.753-29.2a1.053,1.053,0,0,1,1-1.386h7.125a1.052,1.052,0,0,1,1.014.772l6.143,22.22h.654l6.143-22.22a1.052,1.052,0,0,1,1.014-.772h7.214a1.053,1.053,0,0,1,.991,1.405L514.426,73.338c-1.6,4.457-4.872,6.357-10.456,6.357h-4.116a1.052,1.052,0,0,1-1.052-1.053Z" transform="translate(-295.812 -20.696)" fill="#f37137"/>
    <path id="Path_8" data-name="Path 8" d="M568.649,94.422a5.139,5.139,0,1,1,5.168,5.05,4.988,4.988,0,0,1-5.168-5.05" transform="translate(-338.936 -53.304)" fill="#f37137"/>
    <path id="Path_9" data-name="Path 9" d="M95.3,4.991a5.141,5.141,0,0,1,10.278,0,5.14,5.14,0,0,1-10.278,0" transform="translate(-56.801)" fill="#f37137"/>
  </g>
</svg>
