<svg xmlns="http://www.w3.org/2000/svg" xmlns:xlink="http://www.w3.org/1999/xlink" width="1920" height="948" viewBox="0 0 1920 948">
  <defs>
    <clipPath id="clip-path">
      <rect id="Rectangle_1393" data-name="Rectangle 1393" width="1920" height="948" fill="#fff" stroke="#707070" stroke-width="1"/>
    </clipPath>
    <clipPath id="clip-path-2">
      <rect id="Rectangle_19" data-name="Rectangle 19" width="2252.786" height="1518.787" transform="translate(0 0)" fill="#f37137"/>
    </clipPath>
  </defs>
  <g id="Mask_Group_45" data-name="Mask Group 45" clip-path="url(#clip-path)">
    <g id="Group_751" data-name="Group 751" transform="translate(2528.939 231.301) rotate(146)" opacity="0.1">
      <g id="Group_15" data-name="Group 15" clip-path="url(#clip-path-2)">
        <path id="Path_10" data-name="Path 10" d="M84.238,42.1c-.448,42.172.275,84.395,3.915,126.432.88,10.182,1.963,20.338,3.166,30.482a57.611,57.611,0,0,0,.816,6.135c.855,5.748,1.741,11.491,2.717,17.22a603.905,603.905,0,0,0,13.63,61.25q4.059,14.481,8.956,28.713,2.448,7.087,5.115,14.1c1.015,2.667,2.072,5.317,3.126,7.969.729,1.834,2.535,5.905.735,1.786a398.543,398.543,0,0,0,29.176,54.846c12.208,19.112,19.1,27.945,35.036,45A437.139,437.139,0,0,0,234.549,477.3c6.573,5.333,3.113,2.4,1.626,1.287q2.57,1.922,5.168,3.8,6.052,4.383,12.267,8.541,13.316,8.9,27.311,16.7,13.051,7.289,26.6,13.619c1.539.718,12.859,5.748,7.548,3.505,5.246,2.215,10.582,4.245,15.93,6.211a437.789,437.789,0,0,0,59.6,17.177c9.778,2.086,19.631,3.875,29.535,5.274,4.983.7.353.011-.555-.1,2.84.331,5.681.653,8.527.937q8.534.858,17.1,1.388a444.791,444.791,0,0,0,59.992-.328q7.478-.547,14.937-1.357c.962-.1,9.75-1.152,5.042-.541-4.2.544,2.762-.421,2.894-.44,11.124-1.761,22.241-3.659,33.258-5.992a479.315,479.315,0,0,0,63.83-18.369c20.211-7.318,33.348-13.154,54.58-23.82,78.773-39.576,149.251-93.137,221.692-142.852,76.785-52.7,159.553-96.309,247.461-127.363,160.018-56.523,362.332-73.627,507.016,31.284,124.918,90.58,188.255,245,157.907,397.049-17.469,87.524-66.3,168.871-139.5,220.565-61.854,43.686-154.276,58.769-215.869,6.766-39.643-33.471-49.889-93.606-31.725-140.937,16.246-42.34,47.744-75.736,86.358-98.975,84.268-50.713,193.722-48.913,271.149,13.451,46.053,37.1,73.888,93.869,87.785,150.353,23.169,94.175,19.028,195.2,35.826,288.054a601.159,601.159,0,0,0,16.6,68.549q4.017,13.161,8.642,26.128,2.246,6.275,4.646,12.486,1.014,2.624,2.056,5.241c-.065-.16,4.242,10.176,2.12,5.235-1.884-4.394.539,1.167.783,1.691,1.018,2.184,1.971,4.4,2.983,6.584q2.62,5.657,5.4,11.238,5.8,11.651,12.318,22.931a389.51,389.51,0,0,0,25.814,38.8c-6.219-8.269,2.229,2.577,3.55,4.153q3.1,3.7,6.312,7.313,7.971,8.98,16.558,17.382,7.987,7.823,16.465,15.119c2.835,2.437,5.754,4.764,8.606,7.178,1.475,1.251,6.272,4.876-.937-.62q2.565,1.956,5.154,3.875c26.113,19.28,54.653,35.084,84.254,48.321,1.7.757,12.158,5.224,8.042,3.519-4.058-1.68,7.01,2.787,8.379,3.323q11.209,4.4,22.563,8.412c17.75,6.289,35.726,11.9,53.82,17.107,21.826,6.284,35.445,29.655,29.378,51.737-5.987,21.779-29.832,35.686-51.739,29.377-66.049-19.02-132.6-43.84-189.267-83.495-54.025-37.806-98.286-87.053-128.718-145.707-40.537-78.125-57.9-163.582-66.606-250.523-8.432-84.19-9.873-164.578-38.008-244.55,2.683,7.633.749,1.694-1.138-2.386q-1.838-3.974-3.811-7.888c-3.154-6.253-6.57-12.38-10.271-18.33-3.048-4.9-6.676-9.427-9.716-14.306-2.869-4.607,5.5,6.343,1.859,2.386-.855-.931-1.573-2-2.408-2.955-2.2-2.5-4.329-5.061-6.6-7.506q-5.358-5.787-11.2-11.1c-2.044-1.859-4.152-3.64-6.255-5.434-.886-.757-1.85-1.433-2.726-2.207-3.609-3.18,8.872,6.107,2.053,1.682A277.071,277.071,0,0,0,1699.727,709c-8.078-4.035,1.9,1.018,2.013.712.034-.1-6.248-2.411-7.119-2.723q-7.12-2.549-14.443-4.47c-4.848-1.273-9.733-2.252-14.651-3.2-1.8-.348-9.64-1.45-1.789-.379,8.21,1.119-1.932-.12-3.928-.283a197.512,197.512,0,0,0-29.627-.18c-2.456.168-4.9.423-7.358.634-7.414.634-.224,1.326,2.821-.46-3.558,2.089-11.4,1.937-15.489,2.84a218.412,218.412,0,0,0-27.959,8.182c-2.26.827-4.481,1.761-6.738,2.594-6.6,2.431,8.768-4.15,2.5-1.021-4.556,2.274-9.192,4.324-13.683,6.738a239.251,239.251,0,0,0-22.8,14.244c-7.223,5,2.611-2.252,1.52-1.27-1.668,1.5-3.508,2.84-5.213,4.3q-5.056,4.332-9.772,9.046c-3.079,3.084-5.95,6.329-8.838,9.59-.956,1.079-2.235,3.62-3.483,4.262,5.986-3.087,5.527-7.907,3.284-4.161-.614,1.026-1.43,1.943-2.086,2.947-2.271,3.491-4.551,6.943-6.578,10.588-.852,1.536-1.623,3.112-2.462,4.657-3.679,6.777-.014,3.23.634-2.137-.866,7.2-4.8,15.761-6.564,22.984-1.45,5.947.667-12.035.578-3.578-.02,1.7-.233,3.41-.28,5.115-.1,3.628,1.427,9.556.518,12.915.724-2.669-2.134-11.348-.482-4.231.471,2.03.827,4.082,1.338,6.107,1.023,4.066,3.931,9.074,4.276,13.134-.163-1.924-5.392-7.851-1.848-5.005,1.01.81,2.134,3.345,2.823,4.478,4.043,6.634.836.8-.328-.4,1.152,1.195,2.173,2.521,3.4,3.642,2.638,2.411,9.545,7.313,2.633,2.871,3.62,2.327,7.262,4.4,11,6.525,6.592,3.746-5.586-1.2,1.809.625,3.656.9,7.285,2.025,10.947,2.95,1.587.4,3.219.6,4.82.925-1.489-.3-9.2-.667-1.332-.286,4.489.216,8.933.488,13.437.4,3.418-.067,6.808-.407,10.218-.566,2.159-.1,7.868-1.475-.914.236,1.7-.331,3.429-.527,5.126-.895a217.664,217.664,0,0,0,23.6-6.2c2.891-.973,12.108-4.666,4.559-1.382q5.523-2.4,10.868-5.179a184.6,184.6,0,0,0,20-12.183,134.6,134.6,0,0,0,19.2-15.192,268.981,268.981,0,0,0,22.1-22.564c22.006-25.233,42.236-63.727,52.642-96.045a357.185,357.185,0,0,0,12.382-51.638c.3-1.842.572-3.69.841-5.538-.1.653-.6,6.892-.314,1.96.247-4.3.914-8.594,1.245-12.893q.989-12.812,1.012-25.673.021-12.74-.908-25.455c-.306-4.214-.727-8.415-1.161-12.615-.182-1.8-.412-3.589-.631-5.384.466,3.825.754,4.935-.022.474a385.526,385.526,0,0,0-11.429-48.863q-3.722-11.937-8.292-23.587c-1.093-2.79-4.27-9.814-1.242-3.132-1.966-4.335-3.917-8.667-6.009-12.94a353.1,353.1,0,0,0-25.051-43.17c-2.342-3.449-4.772-6.833-7.209-10.218-1.043-1.45-2.125-2.874-3.2-4.3.359.477,4.1,5.159,1.093,1.447-5.65-6.965-11.415-13.8-17.519-20.377a404.217,404.217,0,0,0-36.867-34.405c-6.073-5.092,3.488,2.313-2.969-2.3-3.458-2.473-6.876-4.991-10.38-7.4q-11.327-7.781-23.242-14.648-10.414-6-21.223-11.278c-3.906-1.907-7.865-3.7-11.819-5.507-.468-.213-6.183-2.613-1.865-.824,4.784,1.983-5.642-2.153-5.443-2.078a357.141,357.141,0,0,0-49.457-14.819c-22.449-5-35.095-6.544-57.028-8.193-89.624-6.738-170.191,7.543-255.587,36.637-79.869,27.213-156.71,67.722-228.9,116.874-70.79,48.192-139.213,100.5-215.078,140.7-77.62,41.129-162.18,67.7-250.43,70.3a483.765,483.765,0,0,1-241.847-57.073C169.861,543.394,106.112,480.282,66.761,405.631,26.7,329.623,9.868,244.8,3.318,159.791.3,120.636-.3,81.349.118,42.1.351,20.1,19.3-.99,42.178.036c22.589,1.012,42.31,18.487,42.06,42.06" transform="translate(-0.001 0.001)" fill="#f37137"/>
      </g>
    </g>
  </g>
</svg>
