<svg xmlns="http://www.w3.org/2000/svg" width="66.148" height="50.916" viewBox="0 0 66.148 50.916">
  <g id="Group_734" data-name="Group 734" transform="translate(0.75 0.75)">
    <g id="Group_736" data-name="Group 736" transform="translate(0 0)">
      <path id="Path_261" data-name="Path 261" d="M53.1,10.864V28.811a9.357,9.357,0,0,1-9.359,9.359H19.275l-2.912,2.535L12.2,44.332a.807.807,0,0,1-1.339-.605V38.17A9.36,9.36,0,0,1,1.5,28.811V10.864A9.365,9.365,0,0,1,10.859,1.5H43.736A9.357,9.357,0,0,1,53.1,10.864Z" transform="translate(-1.5 -1.5)" fill="none" stroke="#fff" stroke-linecap="round" stroke-linejoin="round" stroke-width="1.5"/>
      <path id="Path_262" data-name="Path 262" d="M82.475,24.219V42.166a9.357,9.357,0,0,1-9.359,9.359v5.556a.81.81,0,0,1-1.339.61L64.7,51.525H40.239A9.342,9.342,0,0,1,32.69,47.7L35.6,45.163H60.063A9.357,9.357,0,0,0,69.422,35.8V17.857a9.3,9.3,0,0,0-.491-3h4.184a9.357,9.357,0,0,1,9.359,9.359" transform="translate(-17.826 -8.493)" fill="#fff" stroke="#fff" stroke-width="1.5"/>
      <path id="Path_263" data-name="Path 263" d="M82.475,24.219V42.166a9.357,9.357,0,0,1-9.359,9.359v5.556a.81.81,0,0,1-1.339.61L64.7,51.525H40.239A9.342,9.342,0,0,1,32.69,47.7L35.6,45.163H60.063A9.357,9.357,0,0,0,69.422,35.8V17.857a9.3,9.3,0,0,0-.491-3h4.184A9.357,9.357,0,0,1,82.475,24.219Z" transform="translate(-17.826 -8.493)" fill="none" stroke="#fff" stroke-linecap="round" stroke-linejoin="round" stroke-width="1.5"/>
      <path id="Path_264" data-name="Path 264" d="M47.374,34.267,43.034,38.6l-7.418-7.418L33.1,28.671a5.247,5.247,0,0,1,7.418-7.423l2.514,2.514,2.515-2.514a5.249,5.249,0,0,1,7.423,7.423l-1.549,1.55" transform="translate(-17.237 -11.034)" fill="none" stroke="#fff" stroke-linecap="round" stroke-linejoin="round" stroke-width="1.5"/>
      <line id="Line_10" data-name="Line 10" transform="translate(32.167 21.204)" fill="none" stroke="#fff" stroke-linecap="round" stroke-linejoin="round" stroke-width="1.5"/>
    </g>
  </g>
</svg>
